<svg version="1.1" xmlns="http://www.w3.org/2000/svg" style="display: block;" viewBox="0 0 2048 2048" width="1024" height="1024">
<defs>
	<linearGradient id="Gradient1" gradientUnits="userSpaceOnUse" x1="908.402" y1="1494.37" x2="823.598" y2="1517.63">
		<stop class="stop0" offset="0" stop-opacity="1" stop-color="rgb(199,140,79)"/>
		<stop class="stop1" offset="1" stop-opacity="1" stop-color="rgb(217,169,101)"/>
	</linearGradient>
	<linearGradient id="Gradient2" gradientUnits="userSpaceOnUse" x1="1441.98" y1="831.288" x2="1465.62" y2="614.556">
		<stop class="stop0" offset="0" stop-opacity="1" stop-color="rgb(71,138,151)"/>
		<stop class="stop1" offset="1" stop-opacity="1" stop-color="rgb(167,206,204)"/>
	</linearGradient>
	<linearGradient id="Gradient3" gradientUnits="userSpaceOnUse" x1="773.014" y1="715.714" x2="671.403" y2="549.427">
		<stop class="stop0" offset="0" stop-opacity="1" stop-color="rgb(100,158,163)"/>
		<stop class="stop1" offset="1" stop-opacity="1" stop-color="rgb(148,197,193)"/>
	</linearGradient>
	<linearGradient id="Gradient4" gradientUnits="userSpaceOnUse" x1="940.64" y1="1074" x2="736.078" y2="1403.05">
		<stop class="stop0" offset="0" stop-opacity="1" stop-color="rgb(255,130,0)"/>
		<stop class="stop1" offset="1" stop-opacity="1" stop-color="rgb(255,176,2)"/>
	</linearGradient>
	<linearGradient id="Gradient5" gradientUnits="userSpaceOnUse" x1="897.76" y1="795.379" x2="892.071" y2="788.804">
		<stop class="stop0" offset="0" stop-opacity="1" stop-color="rgb(62,19,20)"/>
		<stop class="stop1" offset="1" stop-opacity="1" stop-color="rgb(68,20,45)"/>
	</linearGradient>
</defs>
<path transform="translate(0,0)" fill="rgb(226,43,44)" d="M 0 0 L 2048 0 L 2048 2048 L 0 2048 L 0 0 z"/>
<path transform="translate(0,0)" fill="rgb(252,251,247)" d="M 1036.54 125.409 C 1072.45 119.809 1120.31 133.673 1152.44 149.61 C 1160.81 153.762 1167.92 161.037 1176.93 163.798 C 1184.99 166.266 1194.21 166.551 1202.53 168.157 C 1220.73 171.668 1238.46 178.595 1255.04 186.789 C 1271.73 195.042 1284.99 206.439 1300.44 216.368 C 1308.2 221.361 1317.13 224.95 1325.43 229.01 C 1383.09 257.213 1414.65 306.314 1434.97 365.427 C 1497.62 404.248 1558.19 448.189 1610.4 500.484 A 842.216 842.216 0 0 1 1859.12 1102.31 C 1859.08 1148.56 1854.18 1193.53 1846.13 1239.02 A 847.035 847.035 0 0 1 1605.81 1694.68 C 1559.12 1741.27 1504.39 1781.45 1447.22 1814.2 C 1309.3 1893.22 1170.19 1926.34 1011.75 1926.15 C 905.684 1926.01 781.686 1898.94 684.546 1855.95 A 818.586 818.586 0 0 1 248.383 1404.81 A 851.261 851.261 0 0 1 261.508 750.325 C 324.085 609.478 434.706 474.83 565.272 392.002 C 614.722 360.632 667.349 336.683 721.859 315.704 C 731.211 298.992 741.396 282.341 753.878 267.776 C 792.351 222.882 839.37 205.746 896.729 201.119 C 905.82 192.199 913.863 182.264 923.305 173.682 C 955.118 144.767 994.24 129.828 1036.54 125.409 z"/>
<path transform="translate(0,0)" fill="rgb(189,215,209)" d="M 1539.58 700.121 C 1530.18 708.722 1525.41 719.549 1512.61 724.367 C 1494.06 731.355 1472.24 728.223 1454.54 720.181 C 1434.89 711.249 1414.35 694.734 1407.06 673.712 C 1404.93 667.55 1403.16 655.846 1406.24 649.718 C 1411.19 654.676 1416.04 659.639 1421.57 663.956 C 1422.99 668.839 1432.95 676.488 1437.26 679.324 C 1437.57 679.532 1437.93 679.673 1438.26 679.847 C 1456.52 695.512 1476.39 709.657 1501.66 707.575 C 1514.58 706.511 1523.85 701.439 1532.67 692.22 C 1531.83 696.779 1528.9 699.715 1525.04 702.266 C 1512.88 710.314 1492.55 710.718 1478.65 707.492 C 1472.98 706.177 1468.04 701.268 1462.29 700.722 C 1461.7 702.203 1461.48 703.179 1461.34 704.78 C 1460.89 709.978 1455.5 715.878 1459.29 720.528 C 1468.56 724.325 1496.4 728.56 1505.67 724.877 C 1510.81 722.838 1517.37 720.224 1521.76 716.931 C 1527.88 712.343 1532.67 700.421 1540 698.903 L 1539.58 700.121 z"/>
<path transform="translate(0,0)" fill="rgb(250,174,69)" d="M 1447.21 449.752 C 1472.45 464.028 1495.33 483.907 1517.2 502.776 C 1605.71 579.155 1666.54 657.031 1718.18 762.355 C 1730.08 786.615 1739.56 811.675 1748.58 837.106 A 769.925 769.925 0 0 1 1774.44 1272.45 A 887.991 887.991 0 0 1 1746.83 1365.29 C 1739.84 1384.92 1731.87 1404.17 1725.11 1423.89 C 1716.81 1387.16 1698.87 1346.93 1683.36 1312.65 C 1679.64 1305.09 1675.49 1297.63 1671.26 1290.34 C 1656.43 1264.79 1640.25 1238.92 1621.44 1216.07 C 1565.62 1148.3 1476.56 1087.69 1391.54 1064.98 C 1398.05 1061.3 1404.97 1058.42 1411.37 1054.47 C 1432.8 1041.26 1447.2 1020.13 1455.9 996.898 C 1468.91 986.794 1482.9 978.98 1495.17 967.689 C 1532.95 932.94 1550.35 887.693 1552.59 837.136 C 1561.03 829.255 1569.29 821.633 1576.48 812.535 C 1595.29 788.741 1604.17 762.474 1600.32 732.178 C 1597.06 706.447 1584.2 685.637 1563.78 669.987 C 1572.89 645.978 1571.94 618.065 1561.92 594.505 C 1553.54 574.788 1538.83 557.667 1518.63 549.649 C 1504.71 544.124 1490.57 543.183 1476.69 549.298 C 1471.65 521.753 1463.34 493.065 1445.28 471.08 C 1446.24 463.968 1446.8 456.915 1447.21 449.752 z"/>
<path transform="translate(0,0)" fill="rgb(250,174,69)" d="M 612.72 441.923 C 614.328 443.771 612.668 446.658 612.055 449 C 608.747 461.637 610.207 474.007 611.32 486.823 C 591.304 491.33 572.896 499.152 556.946 512.252 C 529.252 534.995 522.065 562.409 518.684 596.6 C 502.825 605.764 491.999 624.572 486.649 641.64 C 474.797 679.448 485.545 714.655 503.331 748.26 C 496.745 783.831 506.768 823.24 523.941 854.579 C 547.045 896.742 584.353 939.047 631.909 953.034 C 645.216 987.542 654.649 1004.86 689.447 1020.33 L 685.355 1029.08 L 684.146 1029.36 C 641.681 1039.5 599.294 1058.62 561.501 1080.28 C 470.002 1132.7 414.011 1187.77 358.582 1277.55 C 338.269 1312.93 322.137 1347.86 309.741 1386.86 C 298.87 1361.33 290.57 1334.66 283.027 1307.98 C 255.599 1210.98 248.959 1116.42 259.387 1016.18 C 262.751 983.845 267.512 951.145 275.421 919.582 C 314.462 763.789 387.224 637.071 504.14 527.083 C 537.55 495.653 573.289 465.594 612.72 441.923 z"/>
<path transform="translate(0,0)" fill="rgb(62,15,46)" d="M 906.624 220.835 C 936.428 181.43 975.211 154.42 1024.96 146.895 C 1075.9 139.189 1125.63 151.441 1167.03 181.87 A 477.243 477.243 0 0 1 1181.18 183.018 C 1210.83 186.037 1239.5 197.896 1264.53 213.823 C 1274.18 219.966 1283.31 226.977 1293.12 232.864 C 1301.54 237.916 1310.68 241.782 1319.24 246.618 C 1341.89 259.407 1363.62 276.708 1380.02 296.965 C 1408.83 332.546 1426.01 383.967 1427.52 429.487 C 1428.02 444.885 1426.24 459.986 1424.69 475.272 C 1445.82 497.669 1455.95 531.314 1461.11 560.983 C 1463.54 574.979 1464.92 589.14 1467.96 603.028 C 1468.7 595.042 1469.23 586.108 1472.67 578.757 A 24.7298 24.7298 0 0 1 1487.92 565.449 C 1498.19 562.345 1509.6 565.597 1518.58 570.856 C 1534.59 580.245 1545.23 597.522 1549.54 615.266 C 1556.27 642.986 1547.16 668.714 1532.67 692.22 C 1523.85 701.439 1514.58 706.511 1501.66 707.575 C 1476.39 709.657 1456.52 695.512 1438.26 679.847 C 1437.93 679.673 1437.57 679.532 1437.26 679.324 C 1432.95 676.488 1422.99 668.839 1421.57 663.956 C 1416.04 659.639 1411.19 654.676 1406.24 649.718 C 1403.16 655.846 1404.93 667.55 1407.06 673.712 C 1414.35 694.734 1434.89 711.249 1454.54 720.181 C 1472.24 728.223 1494.06 731.355 1512.61 724.367 C 1525.41 719.549 1530.18 708.722 1539.58 700.121 L 1540 698.903 L 1552.43 684.892 C 1561.02 690.076 1567.78 696.507 1572.85 705.157 C 1583.47 723.273 1584.67 745.287 1579.41 765.294 A 101.018 101.018 0 0 1 1533.85 825.473 C 1535.3 844.182 1533.82 863.589 1528.33 881.572 C 1513.06 931.571 1485.15 957.962 1440.3 981.854 L 1439.75 983.635 C 1431.79 1009.41 1417.79 1030.7 1393.3 1043.36 C 1373.22 1053.74 1350.76 1057.04 1329.09 1050.17 C 1327.02 1054.66 1324.6 1059.04 1322.35 1063.45 A 511.247 511.247 0 0 1 1445.17 1104.19 C 1570.12 1162.76 1650.55 1260.09 1694.47 1390.1 C 1699.34 1404.5 1704.76 1419.01 1708.75 1433.66 C 1712.53 1447.57 1715.08 1461.94 1719.17 1475.73 C 1720.07 1478.78 1720.97 1482.04 1723.17 1484.42 C 1726.17 1485.3 1729.03 1485.74 1731.05 1488.32 C 1732.49 1493.26 1729.95 1498.48 1727.8 1502.87 C 1723.18 1512.34 1716.88 1521.26 1711.19 1530.12 C 1698.87 1549.31 1686.33 1568.12 1672.66 1586.37 C 1661.63 1601.1 1650.75 1616.15 1638.81 1630.16 A 773.536 773.536 0 0 1 1299.44 1859.37 A 847.315 847.315 0 0 1 650.563 1817.1 A 781.559 781.559 0 0 1 350.132 1552.71 C 335.294 1530.65 315.352 1500.52 306.877 1475.65 C 316.99 1409.76 340.998 1342.65 375.583 1285.59 C 430.606 1194.82 502.233 1129.18 597.578 1082.62 C 628.695 1067.42 660.59 1054.61 694.255 1046.32 A 4323.97 4323.97 0 0 0 719.378 1007.16 C 707.472 1005.89 696.208 1004.04 685.518 998.338 C 663.569 986.62 652.996 963.203 646.272 940.418 C 639.298 938.829 632.568 936.27 626.079 933.281 C 579.601 911.874 544.371 866.706 527.203 819.323 C 519.124 797.025 513.22 769.598 523.765 747.168 C 517.269 740.052 512.623 730.996 508.917 722.159 C 497.985 696.091 495.083 666.182 506.036 639.588 C 512.635 623.565 523.091 614.103 538.92 607.436 A 96.736 96.736 0 0 1 536.73 588.514 C 536.458 567.218 545.761 546.74 560.756 531.768 C 580.823 511.732 609.067 501.182 637.136 501.138 C 633.88 493.044 631.319 484.875 630.107 476.212 C 626.435 449.953 636.921 423.779 652.786 403.22 C 672.008 378.31 699.397 361.604 730.724 357.407 C 737.637 323.275 752.212 296.915 776.76 272.061 C 814.359 233.994 853.932 221.212 906.624 220.835 z"/>
<path transform="translate(0,0)" fill="rgb(231,170,109)" d="M 911.22 1538.33 L 911.792 1536.56 C 916.027 1534.75 918.995 1534.54 923.454 1535.95 C 924.108 1536.56 925.087 1537.31 925.584 1538.05 C 925.474 1539.25 925.422 1540.63 925.153 1541.81 C 924.542 1544.51 924.535 1545 922.355 1546.48 C 918.198 1545.59 914.351 1541.13 911.22 1538.33 z"/>
<path transform="translate(0,0)" fill="rgb(249,122,0)" d="M 451.532 1640.41 C 454.45 1629.34 457.223 1618.26 461.096 1607.47 C 461.995 1614.82 460.501 1621.94 460.02 1629.26 C 459.561 1636.24 460.03 1643.01 460.653 1649.95 C 457.513 1646.89 454.555 1643.6 451.532 1640.41 z"/>
<path transform="translate(0,0)" fill="rgb(231,170,109)" d="M 768.437 869.96 L 769.35 870.128 C 771.483 876.169 769.047 886.086 769.473 892.909 C 770.313 906.345 773.508 919.591 776.198 932.751 C 772.457 931.493 768.827 929.989 765.176 928.497 C 761.083 925.597 758.162 922.529 755.815 918.041 C 748.498 904.05 750.941 889.78 755.6 875.531 A 1251.45 1251.45 0 0 0 768.437 869.96 z"/>
<path transform="translate(0,0)" fill="rgb(252,251,247)" d="M 1270.84 245.985 C 1299.15 270.11 1317.2 293.672 1328.76 329.196 C 1327.47 331.111 1328.33 330.402 1326.12 331.275 C 1314.95 325.988 1305.67 303.245 1291.75 294.681 C 1286.41 277.521 1279.31 261.793 1270.84 245.985 z"/>
<path transform="translate(0,0)" fill="rgb(252,251,247)" d="M 1190.96 209.855 C 1222.09 219.572 1245.99 230.731 1261.79 260.969 A 270.882 270.882 0 0 1 1266.71 271.143 L 1265.18 272.387 C 1264.52 272.378 1263.82 272.595 1263.2 272.358 C 1257.97 270.347 1239.97 247.484 1225.08 242.215 C 1223.01 239.806 1221.3 238.191 1218.66 236.415 L 1217.39 236.566 C 1217.48 240.577 1218.09 242.694 1215.63 246.096 C 1208.7 232.874 1200.21 221.532 1190.96 209.855 z"/>
<path transform="translate(0,0)" fill="rgb(189,215,209)" d="M 1351.23 359.411 C 1351.89 362.775 1351.59 365.674 1354.74 367.645 C 1359.73 370.767 1364.44 370.175 1368.18 375.795 C 1368.8 383.043 1369.17 390.454 1370.54 397.599 C 1370.52 400.777 1370.41 403.927 1370.24 407.101 C 1364.29 416.219 1352.61 433.219 1340.91 434.858 C 1338.74 435.161 1338.18 434.977 1336.29 433.944 C 1348.95 409.856 1351.35 386.151 1351.23 359.411 z"/>
<path transform="translate(0,0)" fill="url(#Gradient1)" d="M 806.094 1478.47 L 804.843 1477.41 C 810.37 1474.66 820.057 1478.84 825.566 1480.71 C 850.441 1489.11 876.063 1500.14 897.971 1514.68 C 907.687 1521.13 916.612 1528.61 925.989 1535.53 L 925.584 1538.05 C 925.087 1537.31 924.108 1536.56 923.454 1535.95 C 918.995 1534.54 916.027 1534.75 911.792 1536.56 L 911.22 1538.33 C 887.441 1520.91 861.983 1506.85 835.898 1493.26 C 826.141 1488.18 816.324 1482.53 806.094 1478.47 z"/>
<path transform="translate(0,0)" fill="rgb(249,122,0)" d="M 492.714 1680.22 C 496.652 1672.15 497.932 1659.96 500.339 1650.98 C 504.939 1633.84 511.601 1617.79 519.947 1602.15 C 524.262 1594.06 529.306 1582.79 538.688 1579.94 C 515.303 1620.14 511.366 1656.93 518.484 1702.49 C 509.879 1695.43 500.252 1688.42 492.714 1680.22 z"/>
<path transform="translate(0,0)" fill="rgb(156,200,192)" d="M 1336.29 433.944 C 1338.18 434.977 1338.74 435.161 1340.91 434.858 C 1352.61 433.219 1364.29 416.219 1370.24 407.101 C 1369.61 426.684 1360.52 447.7 1345.93 461.014 C 1334.84 471.128 1319.27 474.658 1304.59 473.736 C 1299.94 473.444 1290.75 473.387 1287.18 470.423 C 1288.66 468.962 1288.62 469.075 1290.46 468.536 C 1310.12 462.78 1324.27 449.981 1336.29 433.944 z"/>
<path transform="translate(0,0)" fill="rgb(197,136,73)" d="M 767.904 1514.7 C 779.213 1516.23 791.104 1522.13 801.671 1526.43 C 846.723 1544.78 879.561 1563.04 911.594 1601.3 C 910.316 1606.73 908.557 1612 906.846 1617.31 C 881.356 1583.72 847.693 1560.85 811.221 1540.63 C 796.678 1532.56 781.054 1524.95 767.904 1514.7 z"/>
<path transform="translate(0,0)" fill="rgb(247,197,141)" d="M 1375.4 759.416 C 1383.73 765.943 1389.54 776.622 1392.77 786.533 C 1402.66 816.902 1394.67 856.28 1380.36 883.989 C 1377.66 888.321 1374.42 892.015 1371.1 895.866 C 1379.2 850.137 1373.84 805.355 1375.4 759.416 z"/>
<path transform="translate(0,0)" fill="rgb(85,142,151)" d="M 1366 953.607 C 1368.22 956.323 1369.54 959.756 1371.77 962.567 C 1380.83 973.998 1394.67 978.382 1407.97 982.738 C 1401.94 998.155 1395.17 1006 1380.6 1014.02 C 1369.09 1019.45 1357.98 1021.82 1345.32 1022.51 C 1354.3 996.179 1361.91 982.103 1366 953.607 z"/>
<path transform="translate(0,0)" fill="rgb(197,136,73)" d="M 746.148 1568.35 C 755.46 1569.36 765.475 1573.69 774.252 1577.03 C 811.377 1591.13 852.932 1610.6 878.112 1642.23 C 884.214 1649.9 886.875 1657.58 891.429 1665.9 C 890.435 1670.11 888.685 1674.29 887.259 1678.38 C 858.471 1640.04 836.657 1622.49 795.175 1599.34 C 778.793 1590.19 760.557 1580.32 746.148 1568.35 z"/>
<path transform="translate(0,0)" fill="rgb(252,251,247)" d="M 1327.18 281.058 C 1369.31 313.585 1393.78 361.093 1400.5 413.553 A 296.783 296.783 0 0 1 1402.44 438.774 L 1401.6 441.784 L 1400.62 441.354 C 1398.24 435.469 1398.04 429.086 1395.71 423.291 C 1388.07 404.362 1384.83 389.296 1368.18 375.795 C 1364.44 370.175 1359.73 370.767 1354.74 367.645 C 1351.59 365.674 1351.89 362.775 1351.23 359.411 C 1349.22 332.218 1339.26 305.289 1327.18 281.058 z"/>
<path transform="translate(0,0)" fill="rgb(85,142,151)" d="M 1420.91 769.45 C 1430.36 782.566 1444.95 789.475 1460.57 792.052 A 91.5433 91.5433 0 0 0 1529.43 775.841 C 1536.55 770.575 1542.38 763.743 1548.36 757.267 C 1534.21 788.196 1503.7 810.001 1472.46 821.64 C 1454.68 828.265 1437.06 831.325 1418.13 831.329 C 1418.56 819.026 1418.26 806.976 1416.66 794.761 C 1422.32 803.098 1416.94 824.607 1422.29 830.02 C 1425.65 830.11 1428.16 830.087 1431.34 828.967 C 1432.23 824.772 1426.05 818.178 1425.84 813.097 C 1425.83 812.737 1425.84 812.376 1425.83 812.016 C 1425.64 804.319 1428.3 797.446 1428.72 789.936 C 1428.96 785.615 1426.95 780.317 1424.12 777.06 C 1422.3 774.968 1421.16 773.926 1420.94 771.044 C 1420.9 770.514 1420.92 769.981 1420.91 769.45 z"/>
<path transform="translate(0,0)" fill="rgb(85,142,151)" d="M 728.066 926.234 C 732.55 930.56 734.692 941.241 743.581 948.992 C 756.005 959.826 770.198 959.987 785.694 959.056 C 767.95 971.454 751.491 980.268 729.594 981.477 C 719.337 981.098 709.914 979.386 700.843 974.445 C 685.866 966.286 677.788 953.011 672.839 937.287 C 692.52 936.408 709.988 934.291 728.066 926.234 z"/>
<path transform="translate(0,0)" fill="rgb(208,7,38)" d="M 1159 1281.84 C 1173.92 1283.58 1191.62 1293.82 1203.71 1302.44 C 1161.51 1318.92 1118.88 1333.48 1074.78 1343.92 C 1065.57 1346.28 1044.33 1352.54 1035.63 1350.58 C 1037.25 1348.95 1069.22 1334.07 1074.02 1331.55 C 1103.28 1316.19 1130.49 1298.38 1159 1281.84 z"/>
<path transform="translate(0,0)" fill="rgb(156,200,192)" d="M 1370.54 397.599 C 1369.17 390.454 1368.8 383.043 1368.18 375.795 C 1384.83 389.296 1388.07 404.362 1395.71 423.291 C 1398.04 429.086 1398.24 435.469 1400.62 441.354 L 1401.6 441.784 L 1402.44 438.774 C 1403.24 447.58 1403.43 457.597 1400.17 465.929 C 1396.59 475.054 1389.55 480.979 1380.74 484.866 C 1359.97 494.033 1334.19 496.406 1312.84 488.292 A 120.759 120.759 0 0 0 1317.55 488.158 C 1331.27 487.451 1343.37 481.894 1352.34 471.37 C 1370.54 450.023 1373.67 418.344 1371.36 391.579 L 1370.54 397.599 z"/>
<path transform="translate(0,0)" fill="rgb(125,6,34)" d="M 1328.29 1685.11 C 1337.5 1681.51 1346.69 1678.03 1356.07 1674.89 C 1364.62 1701.83 1372.57 1728.95 1390.81 1751.24 C 1398.16 1760.23 1408.58 1767.56 1414.09 1777.86 C 1387.29 1770.14 1359.87 1756.94 1339.85 1737.2 C 1332.23 1729.69 1325.68 1721.11 1318.77 1712.95 C 1322.26 1704.02 1326.42 1695.42 1328.13 1685.93 L 1328.29 1685.11 z"/>
<path transform="translate(0,0)" fill="rgb(85,142,151)" d="M 1512.85 831.92 L 1514.01 833.488 C 1513.88 834.66 1513.94 834.937 1513.3 836.137 C 1511.36 839.816 1505.23 845.143 1502.35 848.489 C 1480.94 873.366 1455.16 893.768 1421.77 898.801 C 1416.36 899.617 1404.33 901.306 1399.87 898.049 L 1400.48 895.749 C 1409.28 877.895 1414.66 860.387 1417.62 840.713 C 1423.09 843.647 1428.41 846.138 1434.45 847.661 C 1460.08 854.122 1490.71 844.902 1512.85 831.92 z"/>
<path transform="translate(0,0)" fill="rgb(85,142,151)" d="M 1511.54 846.713 C 1512.46 851.294 1510.99 856.433 1509.71 860.856 C 1500.33 893.102 1475.72 928.52 1445.87 944.562 C 1421.51 957.652 1392.38 958.629 1366.22 950.922 C 1365.74 943.329 1366.68 935.355 1367.1 927.745 C 1374.49 923.544 1381.64 919.349 1388.49 914.284 C 1411.58 920.231 1430.49 920.345 1452.82 911.13 C 1482.95 898.693 1499.44 876.172 1511.54 846.713 z"/>
<path transform="translate(0,0)" fill="rgb(125,6,34)" d="M 495.824 1352.92 C 495.967 1355.74 496.207 1358.32 496.803 1361.08 C 499.448 1373.34 498.396 1403.02 499.371 1417.28 A 3646.85 3646.85 0 0 0 511.364 1545.94 C 496.473 1552.29 482.731 1560.81 467.984 1567.27 C 468.178 1545.7 472.454 1523.59 475.1 1502.17 C 481.269 1452.23 488.363 1402.68 495.824 1352.92 z"/>
<path transform="translate(0,0)" fill="rgb(189,215,209)" d="M 1225.08 242.215 C 1239.97 247.484 1257.97 270.347 1263.2 272.358 C 1263.82 272.595 1264.52 272.378 1265.18 272.387 L 1266.71 271.143 C 1284.18 305.576 1289.22 359.861 1276.96 396.66 A 89.2443 89.2443 0 0 1 1268.74 414.492 C 1258.03 403.501 1250.73 363.123 1249.33 347.406 C 1248.1 333.575 1248.69 319.47 1246.48 305.743 C 1244.72 294.797 1240.32 284.144 1236.36 273.841 C 1234.09 263.489 1228.7 252.283 1225.08 242.215 z"/>
<path transform="translate(0,0)" fill="rgb(252,251,247)" d="M 775.776 450.974 C 775.39 450.639 774.999 450.312 774.619 449.971 C 759.918 436.803 751.736 415.12 750.918 395.744 C 749.415 360.094 765.999 323.508 789.793 297.634 C 816.528 268.562 852.533 249.343 892.286 247.543 C 890.824 251.819 888.927 255.707 886.917 259.738 C 846.092 272.944 803.277 306.698 783.468 345.122 C 769.879 371.479 762.385 408.237 772.163 436.99 C 773.759 441.684 776.738 445.906 775.776 450.974 z"/>
<path transform="translate(0,0)" fill="rgb(250,174,69)" d="M 1530.77 1635.34 C 1528.04 1621.22 1531.33 1605.24 1532.29 1590.96 C 1532.96 1580.8 1532.93 1570.47 1534.28 1560.39 C 1552.05 1587.41 1574.66 1616.78 1604.15 1631.66 C 1577.26 1657.09 1551.88 1684.37 1523.87 1708.57 A 323.637 323.637 0 0 0 1532.51 1668.43 C 1532.25 1657.38 1531.47 1646.36 1530.77 1635.34 z"/>
<path transform="translate(0,0)" fill="rgb(197,136,73)" d="M 1530.77 1635.34 C 1533.84 1636.37 1536.46 1637.55 1539.28 1639.14 C 1538.17 1651.18 1533.86 1658.56 1532.51 1668.43 C 1532.25 1657.38 1531.47 1646.36 1530.77 1635.34 z"/>
<path transform="translate(0,0)" fill="rgb(250,174,69)" d="M 461.096 1607.47 C 462.741 1601.87 464.321 1597.56 468.282 1593.18 C 486.368 1573.18 531.947 1558.39 558.254 1556.53 C 551.53 1564.2 544.944 1571.88 538.688 1579.94 C 529.306 1582.79 524.262 1594.06 519.947 1602.15 C 511.601 1617.79 504.939 1633.84 500.339 1650.98 C 497.932 1659.96 496.652 1672.15 492.714 1680.22 C 482.2 1669.97 471.345 1660.03 460.653 1649.95 C 460.03 1643.01 459.561 1636.24 460.02 1629.26 C 460.501 1621.94 461.995 1614.82 461.096 1607.47 z"/>
<path transform="translate(0,0)" fill="rgb(189,215,209)" d="M 1378.9 493.558 L 1397.07 483.513 C 1408.93 495.935 1420.7 508.588 1427.11 524.822 C 1436.86 549.488 1438.32 596.609 1447.74 613.698 C 1452.61 622.535 1460.6 628.101 1470.78 628.509 C 1475.73 628.707 1480.64 627.902 1484.2 624.213 C 1493.81 614.236 1481.93 596.31 1493.68 585.563 C 1499.84 584.577 1504.23 585.036 1509.38 588.86 C 1519.05 596.051 1523.21 610.869 1524.59 622.397 C 1526.1 635.016 1525.21 652.488 1516.95 662.735 C 1516.15 663.729 1515.28 664.661 1514.4 665.585 L 1513.74 664.407 C 1513.98 663.845 1514.2 663.279 1514.45 662.723 C 1514.72 662.103 1515.02 661.493 1515.31 660.879 C 1514.53 660.357 1513.99 660.059 1513.38 659.271 C 1511.85 657.285 1511.32 655.403 1511.51 652.934 C 1511.72 649.989 1511.81 647.029 1511.96 644.079 C 1511.66 641.632 1511.59 639.349 1510.22 637.223 C 1502.44 639.021 1500.26 649.947 1486.88 651.092 C 1417.83 656.998 1428.73 570.267 1408.82 528.829 C 1401.71 514.023 1391.34 504.006 1378.9 493.558 z"/>
<path transform="translate(0,0)" fill="rgb(189,215,209)" d="M 1291.75 294.681 C 1305.67 303.245 1314.95 325.988 1326.12 331.275 C 1328.33 330.402 1327.47 331.111 1328.76 329.196 C 1329.73 332.634 1330.95 336.167 1331.4 339.71 C 1339.77 357.89 1337.15 398.425 1331.34 417.406 C 1326.38 433.658 1317.08 447.094 1301.64 455.1 C 1275.92 468.429 1257.32 460.925 1231.73 452.994 C 1247.17 449.035 1260.2 442.082 1271.32 430.511 C 1295.86 404.968 1299.16 371.088 1298.26 337.235 C 1297.08 322.785 1294.69 308.851 1291.75 294.681 z"/>
<path transform="translate(0,0)" fill="rgb(204,234,226)" d="M 1291.75 294.681 C 1305.67 303.245 1314.95 325.988 1326.12 331.275 C 1328.33 330.402 1327.47 331.111 1328.76 329.196 C 1329.73 332.634 1330.95 336.167 1331.4 339.71 L 1331.04 339.896 L 1330.07 339.512 C 1329.24 337.991 1328.59 336.826 1327.22 335.718 C 1317.18 327.545 1309.43 315.725 1301.64 305.437 L 1299.82 305.74 C 1294.98 312.462 1299.86 326.765 1298.42 336.201 L 1298.26 337.235 C 1297.08 322.785 1294.69 308.851 1291.75 294.681 z"/>
<path transform="translate(0,0)" fill="rgb(197,136,73)" d="M 546.597 1723.22 C 544.61 1718.26 542.93 1713.06 541.365 1707.95 C 530.02 1670.88 530.84 1622.52 549.201 1587.72 C 548.778 1610.49 545.032 1663.1 561.5 1679.36 C 567.827 1685.6 576.583 1687.02 585.137 1686.67 C 600.649 1686.04 623.01 1678.36 633.232 1666.11 C 634.037 1665.14 634.613 1664.12 635.224 1663.03 C 644.808 1674.55 654.976 1683.67 667.191 1692.36 C 645.486 1723.45 613.858 1736.35 578.599 1745.44 C 567.46 1739.68 556.522 1730.89 546.597 1723.22 z"/>
<path transform="translate(0,0)" fill="rgb(156,200,192)" d="M 596.936 533.29 C 610.524 524.18 625.474 517.033 642.35 520.046 C 649.498 521.322 656.226 524.464 660.31 530.7 C 664.521 537.132 664.897 545.223 663.142 552.527 C 661.215 560.545 656.58 569.788 649.067 573.908 C 645.093 576.088 640.6 576.331 636.368 574.756 C 631.283 572.863 626.499 568.724 624.233 563.794 C 624.369 562.129 624.04 561.309 625.34 560.068 C 628.88 556.69 646.455 554.896 646.952 553.192 C 641.149 549.4 634.992 547.24 627.996 548.584 C 620.652 549.996 614.473 554.94 610.635 561.244 C 604.596 571.166 603.849 584.025 606.681 595.092 C 610.895 611.56 622.794 623.622 637.174 631.845 C 650.231 639.311 664.568 643.5 679.242 646.405 C 678.653 646.515 678.066 646.635 677.475 646.735 C 672.811 647.526 667.298 644.416 664.224 649.066 C 662.82 651.19 659.997 660.901 660.693 663.291 L 661.44 663.58 L 661.482 661.765 L 662.086 663.758 C 673.046 665.517 684.309 664.876 695.387 665.33 C 688.881 665.454 682.022 665.18 675.586 666.09 C 665.779 666.343 655.376 665.286 645.667 663.927 C 620.062 660.342 598.201 650.443 582.432 629.281 C 569.692 612.184 566.58 594.914 569.466 574.15 C 574.878 556.04 581.853 544.982 596.936 533.29 z"/>
<path transform="translate(0,0)" fill="rgb(252,251,247)" d="M 569.466 574.15 C 574.878 556.04 581.853 544.982 596.936 533.29 C 598.522 535.248 600.155 537.167 601.584 539.243 C 584.126 551.68 576.734 567.934 573.282 588.607 L 572.987 590.389 C 572.494 585.141 572.827 578.395 569.466 574.15 z"/>
<path transform="translate(0,0)" fill="rgb(250,174,69)" d="M 772.615 987.223 C 776.498 1008.28 744.935 1066.52 736.399 1088.35 C 725.956 1115.06 715.58 1142.24 708.468 1170.04 C 697.414 1213.26 691.536 1256.29 691.026 1300.92 C 690.957 1306.87 692.172 1335.96 689.707 1338.93 C 689.389 1339.31 688.976 1339.6 688.61 1339.94 C 681.544 1310.24 679.056 1277.82 678.099 1247.36 C 675.755 1172.84 686.429 1094.53 731.327 1032.76 C 743.348 1016.22 758.641 1002.09 772.615 987.223 z"/>
<path transform="translate(0,0)" fill="rgb(252,239,220)" d="M 1381.11 1423.34 C 1418.04 1433.73 1444.85 1476.64 1462.73 1508.5 C 1488.9 1555.14 1519.61 1628.52 1513.22 1682.46 C 1502.42 1680.53 1499.74 1662.14 1497.36 1653.19 C 1485.4 1608.08 1464.3 1544.93 1424.83 1517.43 C 1403.79 1502.77 1380.1 1492.48 1358.68 1478.68 L 1357.91 1478.17 C 1372.35 1474.91 1383.28 1475.08 1397.97 1477.4 C 1402.12 1478.05 1406.89 1479.53 1411.06 1479.43 C 1410.45 1477.8 1409.55 1476.1 1408.62 1474.63 C 1401.12 1462.78 1388.21 1459.01 1375.3 1456.46 C 1376.8 1445.37 1380.25 1434.51 1381.11 1423.34 z"/>
<path transform="translate(0,0)" fill="rgb(247,197,141)" d="M 1381.11 1423.34 C 1385.22 1440.55 1419.65 1456.93 1415.49 1474.78 C 1417.43 1475.95 1419.2 1476.44 1421.37 1477.05 L 1421.13 1477.86 C 1417.79 1477.91 1413.81 1477.34 1411.06 1479.43 C 1410.45 1477.8 1409.55 1476.1 1408.62 1474.63 C 1401.12 1462.78 1388.21 1459.01 1375.3 1456.46 C 1376.8 1445.37 1380.25 1434.51 1381.11 1423.34 z"/>
<path transform="translate(0,0)" fill="rgb(249,122,0)" d="M 1017.3 1354.77 C 1035.04 1322.49 1103.93 1280.28 1134.08 1250.81 C 1143.27 1241.83 1152.03 1231.8 1159.92 1221.64 C 1165.79 1214.08 1171.06 1204.31 1178.34 1198.13 C 1184.67 1192.75 1194.03 1189.08 1201.29 1184.89 A 397.415 397.415 0 0 0 1230.68 1165.88 C 1252.85 1150.21 1269.38 1130.13 1289.02 1111.83 A 774.532 774.532 0 0 1 1293 1128.39 C 1292.58 1128.82 1292.13 1129.23 1291.72 1129.68 C 1284.71 1137.21 1281.1 1152.23 1276.25 1161.62 C 1268.45 1176.72 1254.76 1191.35 1242.39 1202.8 C 1229.38 1214.82 1214.08 1225.91 1199.29 1235.65 C 1186.76 1243.88 1162.39 1254.55 1153.87 1265.35 C 1115.06 1281.3 1082.29 1308.12 1048.62 1332.73 C 1038.35 1340.23 1028.22 1348.24 1017.3 1354.77 z"/>
<path transform="translate(0,0)" fill="rgb(208,7,38)" d="M 1318.77 1712.95 C 1325.68 1721.11 1332.23 1729.69 1339.85 1737.2 C 1359.87 1756.94 1387.29 1770.14 1414.09 1777.86 L 1415.27 1778.33 C 1412.58 1781.9 1406.53 1784.39 1402.69 1786.68 C 1359.13 1812.57 1303.76 1831.66 1255.16 1846.04 C 1261.35 1831.67 1269.66 1818 1276.47 1803.87 C 1290.94 1773.83 1304.85 1743.26 1318.77 1712.95 z"/>
<path transform="translate(0,0)" fill="rgb(156,200,192)" d="M 1326.89 503.129 C 1346.06 503.314 1361.2 501.216 1378.9 493.558 C 1391.34 504.006 1401.71 514.023 1408.82 528.829 C 1428.73 570.267 1417.83 656.998 1486.88 651.092 C 1500.26 649.947 1502.44 639.021 1510.22 637.223 C 1511.59 639.349 1511.66 641.632 1511.96 644.079 C 1511.81 647.029 1511.72 649.989 1511.51 652.934 C 1511.32 655.403 1511.85 657.285 1513.38 659.271 C 1513.99 660.059 1514.53 660.357 1515.31 660.879 C 1515.02 661.493 1514.72 662.103 1514.45 662.723 C 1514.2 663.279 1513.98 663.845 1513.74 664.407 L 1514.4 665.585 C 1507.34 675.899 1494.38 682.549 1482.34 684.907 C 1467.46 687.82 1452.35 684.752 1438.26 679.847 C 1437.93 679.673 1437.57 679.532 1437.26 679.324 C 1432.95 676.488 1422.99 668.839 1421.57 663.956 C 1416.31 653.357 1410.27 643.179 1405.13 632.503 C 1397.31 616.244 1390.84 599.352 1382.9 583.146 C 1373.04 563.021 1360.98 543.099 1348.8 524.29 C 1379.22 550.455 1392.22 562.958 1405.88 601.523 C 1404.34 590.24 1402.05 579.706 1397.61 569.178 C 1384.11 537.208 1358.53 515.86 1326.89 503.129 z"/>
<path transform="translate(0,0)" fill="rgb(252,251,247)" d="M 893.376 378.174 C 888.771 367.369 885.79 356.539 884.999 344.784 C 882.268 304.197 901.665 258.492 928.284 228.463 C 958.449 194.434 999.482 174.288 1044.92 171.836 C 1091.32 169.331 1137.55 186.9 1171.94 217.886 C 1205.26 247.919 1222.79 288.509 1225.31 332.904 L 1224.25 340.225 L 1223.77 340.289 C 1213.89 291.649 1198.05 250.839 1155.11 222.316 C 1119.17 198.447 1076.57 191.362 1034.53 200.222 C 985.829 210.489 944.53 238.093 917.326 279.954 C 907.513 295.054 899.477 312.206 896.092 329.986 C 894.53 338.186 895.272 375.199 893.376 378.174 z"/>
<path transform="translate(0,0)" fill="rgb(197,136,73)" d="M 1204.88 1677.69 C 1228.72 1677.01 1254.39 1675.43 1277.5 1669.37 C 1321.16 1657.93 1362.98 1633.87 1409.49 1635.94 C 1422.14 1663.57 1438.74 1702.41 1469.72 1713.62 C 1480.08 1717.37 1490.86 1716.79 1500.81 1712.05 C 1502.98 1711.01 1505.03 1709.77 1507.07 1708.49 C 1505.75 1714.14 1504 1719.69 1502.37 1725.26 C 1485.26 1740.89 1462.56 1756.06 1441.85 1766.41 C 1433.5 1762.12 1425.71 1756.55 1418.62 1750.41 C 1397.47 1732.09 1377.24 1698.32 1375.69 1669.91 C 1375.15 1659.97 1377.73 1654.81 1383.96 1647.58 C 1351.04 1654.44 1322.07 1670.59 1290.21 1680.29 C 1262.66 1688.68 1231.13 1691.68 1204.88 1677.69 z"/>
<path transform="translate(0,0)" fill="url(#Gradient2)" d="M 1382.95 688.818 C 1383.09 652.431 1380.33 624.902 1373.05 589.18 C 1383.88 610.506 1390.8 630.811 1406.24 649.718 C 1403.16 655.846 1404.93 667.55 1407.06 673.712 C 1414.35 694.734 1434.89 711.249 1454.54 720.181 C 1472.24 728.223 1494.06 731.355 1512.61 724.367 C 1525.41 719.549 1530.18 708.722 1539.58 700.121 C 1542.79 701.361 1544 701.594 1545.45 705.027 C 1548.86 713.085 1543.32 725.908 1539.74 733.34 C 1530.36 752.828 1515.67 766.197 1495.12 773.244 C 1470.07 781.832 1445.24 778.36 1420.91 769.45 C 1420.92 769.981 1420.9 770.514 1420.94 771.044 C 1421.16 773.926 1422.3 774.968 1424.12 777.06 C 1426.95 780.317 1428.96 785.615 1428.72 789.936 C 1428.3 797.446 1425.64 804.319 1425.83 812.016 C 1425.84 812.376 1425.83 812.737 1425.84 813.097 C 1426.05 818.178 1432.23 824.772 1431.34 828.967 C 1428.16 830.087 1425.65 830.11 1422.29 830.02 C 1416.94 824.607 1422.32 803.098 1416.66 794.761 C 1415.68 791.641 1414.96 788.459 1414.06 785.316 C 1408.16 764.707 1397.41 751.245 1378.71 740.877 A 1713.33 1713.33 0 0 0 1383.76 703.659 A 266.43 266.43 0 0 0 1389.78 710.721 A 115.89 115.89 0 0 0 1469.81 749.975 C 1488.98 751.097 1507.35 748.242 1522.12 735.206 C 1502.82 744.985 1485.18 748.208 1463.69 744.808 C 1428.9 739.302 1403.12 716.368 1382.95 688.818 z"/>
<path transform="translate(0,0)" fill="rgb(250,174,69)" d="M 1153.87 1265.35 C 1162.39 1254.55 1186.76 1243.88 1199.29 1235.65 C 1214.08 1225.91 1229.38 1214.82 1242.39 1202.8 C 1254.76 1191.35 1268.45 1176.72 1276.25 1161.62 C 1281.1 1152.23 1284.71 1137.21 1291.72 1129.68 C 1292.13 1129.23 1292.58 1128.82 1293 1128.39 C 1303.5 1166.01 1314.02 1205.01 1319.61 1243.72 C 1304.58 1253.07 1289.4 1262.19 1273.59 1270.16 C 1257.45 1278.29 1240.79 1285.35 1224.92 1294.02 C 1209.08 1278.6 1186.92 1264.49 1164 1264.39 C 1160.63 1264.38 1157.19 1264.77 1153.87 1265.35 z"/>
<path transform="translate(0,0)" fill="rgb(247,197,141)" d="M 1375.76 1235.28 A 892.405 892.405 0 0 1 1386.01 1226.99 C 1386.02 1285.15 1375.66 1349.71 1363.62 1406.54 C 1359.92 1423.99 1355.25 1441.23 1351.33 1458.62 C 1294.06 1474.45 1255.49 1509.95 1214.19 1550.38 C 1202.49 1561.83 1190.96 1574.62 1178.06 1584.7 C 1179.8 1576.97 1223.76 1521.57 1232.24 1509.53 C 1251.46 1482.24 1270.44 1453.79 1287.73 1425.23 C 1309.92 1388.56 1373.94 1273.88 1375.76 1235.28 z"/>
<path transform="translate(0,0)" fill="rgb(125,6,34)" d="M 813.997 1279.12 C 844.378 1290.73 871.145 1309.87 899.268 1325.89 C 922.082 1338.88 946.361 1349.86 967.656 1365.32 C 961.58 1366.8 955.734 1367.93 949.512 1368.58 L 943.973 1413.33 C 895.752 1400.7 847.341 1388.05 799.357 1374.57 C 774.388 1367.56 749.759 1359.04 724.459 1353.27 C 741.611 1323.47 782.87 1292.3 813.997 1279.12 z"/>
<path transform="translate(0,0)" fill="rgb(197,136,73)" d="M 814.327 1054.86 C 817.872 1058.62 834.314 1093.56 839.389 1101.88 C 869.963 1151.99 922.938 1198.96 976.9 1222.03 C 1022.84 1241.68 1078.11 1241.37 1124.27 1223.03 C 1108.93 1238.57 1092.63 1253.21 1076.45 1267.88 C 1053.67 1286.96 1031.61 1306.82 1008.94 1326.02 A 1937.39 1937.39 0 0 1 962.986 1290.51 C 906.161 1244.44 845.718 1169.56 823.235 1099.51 C 818.541 1084.88 815.921 1070.11 814.327 1054.86 z"/>
<path transform="translate(0,0)" fill="rgb(226,43,44)" d="M 1307.35 1086.9 C 1435.37 1113.87 1546.13 1182.38 1618.22 1292.72 C 1652.03 1344.46 1674.02 1400.92 1688.3 1460.82 C 1691.86 1475.76 1695.69 1491.1 1697.44 1506.38 A 1500.64 1500.64 0 0 1 1687.26 1521.01 C 1681.36 1509.07 1675.76 1478.53 1671.42 1463.8 C 1659.77 1424.29 1641.48 1385.53 1619.86 1350.53 C 1559.22 1252.3 1475.34 1190.01 1370.15 1145.55 C 1351.09 1137.5 1330.99 1126.82 1310.82 1122.03 C 1307.06 1113.87 1303.39 1105.65 1299.52 1097.54 C 1302.05 1093.96 1304.47 1090.21 1307.35 1086.9 z"/>
<path transform="translate(0,0)" fill="rgb(226,43,44)" d="M 332.642 1474.87 C 341.511 1427.88 352.519 1383.3 374.046 1340.34 A 526.329 526.329 0 0 1 685.451 1070.53 C 677.189 1087.62 671.3 1105.96 666.134 1124.2 C 635.207 1135.59 603.008 1153.6 575.286 1171.31 C 556.326 1183.42 537.287 1195.55 519.725 1209.66 C 465.662 1253.09 418.515 1313.63 389.471 1376.59 C 370.815 1417.03 354.983 1462.54 349.992 1507 A 726.323 726.323 0 0 1 332.642 1474.87 z"/>
<path transform="translate(0,0)" fill="rgb(231,170,109)" d="M 1038.92 441.402 C 1106.89 431.308 1154.38 447.528 1220.09 453.571 C 1252.19 458.985 1292.73 474.536 1312.18 502.098 C 1312.87 503.078 1313.52 504.076 1314.14 505.104 C 1313.78 505.056 1313.42 505.014 1313.07 504.961 C 1292.51 501.921 1271.69 492.284 1251.6 486.59 C 1206.35 473.759 1105.8 453.256 1061.14 459.368 A 141.359 141.359 0 0 0 999.125 484.479 C 966.471 508.32 937.54 549.863 919.574 585.652 C 908.903 606.908 900.604 629.228 890.585 650.767 C 883.057 666.949 874.201 682.399 864.855 697.589 C 853.728 715.671 839.462 732.78 822.458 745.672 C 816.35 750.303 807.448 753.997 802.613 759.829 C 795.945 767.872 796.1 781.051 789.409 788.548 C 779.962 799.714 775.759 825.026 772.376 839.293 A 186.466 186.466 0 0 1 768.846 843.021 C 764.472 847.493 759.727 850.632 753.224 850.485 C 746.673 850.337 741.065 846.294 736.76 841.669 C 716.476 819.874 715.806 786.205 717.046 758.335 C 730.6 756.4 743.809 754.374 757.083 750.98 C 756.258 768.998 755.151 786.428 760.03 804.019 C 768.54 786.41 771.679 764.783 775.507 745.696 C 850.025 711.909 879.825 646.475 906.177 574.151 C 913.843 553.112 920.112 531.143 930.862 511.407 C 953.355 470.111 996.185 454.051 1038.92 441.402 z"/>
<path transform="translate(0,0)" fill="rgb(85,142,151)" d="M 522.207 651.838 C 525.4 654.858 528.073 661.196 530.513 665.083 C 535.544 673.098 540.572 680.722 546.934 687.771 C 580.419 724.873 636.792 754.645 687.103 757.295 C 686.404 777.46 687.143 796.491 692.637 816.037 C 699.148 839.199 710.748 856.199 731.846 868.126 C 726.915 887.173 723.609 902.85 727.576 922.328 C 698.072 926.024 665.676 917.201 638.817 905.59 C 596.422 887.261 564.27 852.784 547.404 810.074 C 562.816 822.827 576.461 835.74 593.964 845.89 A 133.924 133.924 0 0 0 623.992 858.132 C 649.573 865.096 675.161 865.956 698.582 852.404 C 659.876 855.521 612.961 836.69 582.036 814.358 C 568.091 804.288 540.789 783.674 538.538 765.21 C 538.259 762.924 538.179 762.805 539.628 760.919 C 544.456 761.416 567.619 775.378 574.133 778.271 C 587.298 784.119 600.978 789.251 615.027 792.529 C 636.761 797.598 660.977 798.358 680.496 785.974 C 680.842 785.754 681.184 785.528 681.528 785.304 C 665.511 787.528 649.304 788.366 633.442 784.627 C 593.757 775.273 556.351 743.036 535.257 708.961 C 525.438 693.1 517.704 670.603 522.207 651.838 z"/>
<path transform="translate(0,0)" fill="url(#Gradient3)" d="M 867.777 557.588 C 873.381 552.92 878.712 548.133 883.916 543.023 C 873.467 564.989 866.02 587.705 856.403 609.933 C 835.342 658.612 800.21 712.321 748.214 730.966 C 704.633 746.593 650.305 737.792 609.452 718.122 C 581.607 704.715 543.322 677.003 533.094 646.276 C 531.196 640.577 530.459 636.206 533.376 630.768 C 533.609 630.331 533.859 629.904 534.101 629.472 C 536.361 626.643 538.574 623.765 540.959 621.04 C 549.072 640.034 561.89 653.168 581.182 660.854 C 614.407 674.091 662.775 672.6 697.492 667.636 C 690.43 666.273 682.795 666.817 675.586 666.09 C 682.022 665.18 688.881 665.454 695.387 665.33 C 684.309 664.876 673.046 665.517 662.086 663.758 L 661.482 661.765 L 661.44 663.58 L 660.693 663.291 C 659.997 660.901 662.82 651.19 664.224 649.066 C 667.298 644.416 672.811 647.526 677.475 646.735 C 678.066 646.635 678.653 646.515 679.242 646.405 C 687.705 646.586 696.478 648.301 705.024 648.757 C 752.222 651.274 793.697 638.257 828.891 606.217 C 834.898 600.748 871.635 562.131 871.852 557.244 L 868.913 558.787 L 867.777 557.588 z"/>
<path transform="translate(0,0)" fill="rgb(62,15,46)" d="M 864.83 578.868 C 864.785 579.473 864.798 580.086 864.696 580.685 C 863.283 588.96 857.11 599.903 853.35 607.533 C 833.831 647.134 810.703 676.524 771.462 697.912 C 727.276 721.996 680.945 728.926 632.359 714.484 L 631.22 713.881 C 633.094 713.039 656.048 717.338 660.393 717.532 C 674.668 718.168 689.652 716.122 703.534 712.923 C 753.878 701.324 799.65 669.805 831.319 629.342 C 843.787 613.41 854.162 596.021 864.83 578.868 z"/>
<path transform="translate(0,0)" fill="rgb(252,251,247)" d="M 534.101 629.472 C 536.361 626.643 538.574 623.765 540.959 621.04 C 549.072 640.034 561.89 653.168 581.182 660.854 C 614.407 674.091 662.775 672.6 697.492 667.636 C 712.52 670.568 752.472 654.098 758.935 657.136 C 758.865 657.4 758.833 657.678 758.724 657.929 C 757.29 661.229 750.506 664.998 747.279 666.739 C 700.361 692.046 641.61 697.53 590.629 681.809 C 555.915 671.105 550.119 659.802 534.101 629.472 z"/>
<path transform="translate(0,0)" fill="rgb(156,200,192)" d="M 775.776 450.974 C 776.738 445.906 773.759 441.684 772.163 436.99 C 762.385 408.237 769.879 371.479 783.468 345.122 C 803.277 306.698 846.092 272.944 886.917 259.738 C 872.706 295.254 866.21 330.75 882.028 367.012 C 885.644 375.304 891.433 381.258 896.414 388.642 C 900.426 394.588 903.738 400.865 908.061 406.63 C 924.926 429.123 947.456 437.887 970.797 451.433 C 921.106 460.979 858.555 451.751 816.329 422.9 C 803.803 414.341 793.666 404.234 783.494 393.076 C 803.073 425.783 828.888 448.458 866.314 457.979 C 890.201 464.056 912.973 464.622 937.412 464.002 C 927.885 468.629 918.456 473.278 908.251 476.261 C 877.846 485.149 840.465 482.282 810.759 472.033 C 798.751 467.89 783.957 461.07 775.776 450.974 z"/>
<path transform="translate(0,0)" fill="rgb(125,6,34)" d="M 781.514 1681.95 C 784.082 1682.01 791.586 1687.46 794.104 1688.93 C 817.246 1702.46 842.528 1716.09 862.27 1734.45 C 849.342 1762.05 834.625 1787.51 818.642 1813.43 C 811.644 1824.77 804.917 1836.72 796.348 1846.96 C 769.928 1840.61 742.942 1830.65 717.756 1820.46 C 679.16 1805.04 644.026 1785.44 607.116 1766.58 C 635.724 1751.07 660.24 1728.04 680.94 1703.14 C 718.798 1707.44 748.454 1699.79 781.514 1681.95 z"/>
<path transform="translate(0,0)" fill="rgb(156,200,192)" d="M 730.39 382.114 L 731.342 396.274 C 735.481 425.163 746.661 451.83 770.69 469.836 C 799.083 491.111 846.289 498.468 880.744 493.346 C 888.865 492.138 896.718 489.867 904.599 487.618 C 893.182 494.823 882.275 503.648 870.645 510.306 C 833.069 531.82 780.05 550.85 736.604 540.833 C 720.576 537.137 707.183 530.986 695.749 519.055 L 694.701 520.353 L 695.508 519.09 L 696.289 521.296 L 695.426 522.399 C 710.828 540.889 737.814 550.341 761.108 552.468 C 814.453 557.34 861.69 534.016 902.915 502.696 C 892.601 515.422 882.156 528.204 870.132 539.379 C 843.776 563.874 806.783 582.589 770.77 586.245 C 739.914 589.377 714.847 580.067 688.87 564.34 C 708.86 585.565 735.755 594.775 764.534 595.782 C 803.467 597.143 836.869 579.519 867.777 557.588 L 868.913 558.787 C 868.779 558.966 868.652 559.152 868.51 559.324 C 835.549 599.137 788.466 631.125 736.087 636.659 C 702.962 640.158 666.799 634.814 640.319 613.189 C 626.348 601.78 621.018 588.612 619.255 571.039 C 622.208 574.229 625.033 577.813 628.385 580.572 C 634.408 585.527 642.195 588.431 650.025 587.283 C 658.823 585.993 665.91 580.229 670.966 573.174 C 679.066 561.87 683.309 546.961 681.012 533.158 C 678.879 520.34 671.841 512.87 661.784 505.558 C 660.461 485.507 651.065 468.344 656.462 447.879 C 659.089 438.57 663.096 431.039 668.463 423.043 C 684.328 400.8 705.564 391.382 730.39 382.114 z"/>
<path transform="translate(0,0)" fill="rgb(204,234,226)" d="M 668.463 423.043 C 673.178 426.027 677.793 428.989 682.212 432.408 C 682.164 434.971 682.486 433.818 681.384 435.904 C 673.579 437.982 664.741 451.253 656.462 447.879 C 659.089 438.57 663.096 431.039 668.463 423.043 z"/>
<path transform="translate(0,0)" fill="rgb(62,15,46)" d="M 692.634 452.536 C 693.926 437.818 698.103 427.469 705.653 414.952 C 700.021 431.118 696.965 447.272 704.736 463.518 C 711.528 477.714 725.266 488.224 739.88 493.52 C 764.456 508.825 800.185 504.099 826.91 498.942 C 818.839 502.935 810.757 506.198 801.976 508.296 C 776.243 514.446 748.029 511.101 725.428 497.078 C 707.783 486.13 697.452 472.814 692.634 452.536 z"/>
<path transform="translate(0,0)" fill="rgb(252,251,247)" d="M 730.39 382.114 L 731.342 396.274 C 721.432 404.987 717.172 422.031 716.434 434.993 C 715.147 457.612 727.213 473.023 739.019 490.894 C 739.845 492.144 739.57 491.758 739.88 493.52 C 725.266 488.224 711.528 477.714 704.736 463.518 C 696.965 447.272 700.021 431.118 705.653 414.952 C 698.103 427.469 693.926 437.818 692.634 452.536 C 687.199 475.277 689.034 493.787 698.235 515.032 C 694.214 511.774 691.463 508.185 688.743 503.814 C 675.184 482.023 675.64 460.113 681.384 435.904 C 682.486 433.818 682.164 434.971 682.212 432.408 C 677.793 428.989 673.178 426.027 668.463 423.043 C 684.328 400.8 705.564 391.382 730.39 382.114 z"/>
<path transform="translate(0,0)" fill="url(#Gradient4)" d="M 772.615 987.223 A 642.926 642.926 0 0 1 783.945 971.587 C 785.904 978.158 788.28 984.938 788.944 991.79 C 789.889 1001.54 788.315 1011.26 787.92 1021 C 787.36 1034.81 788.86 1049.14 791.328 1062.71 C 801.92 1120.96 827.34 1181.08 862.966 1228.52 C 897.08 1273.95 947.853 1316.02 997.029 1344.05 L 984.007 1354.86 C 967.146 1342.87 949.833 1331.56 932.89 1319.69 C 908.892 1302.88 839.323 1248.53 811.76 1253.3 C 778.402 1259.07 747.948 1287.8 729.768 1314.83 C 715.116 1336.62 704.324 1363.03 699.764 1388.9 C 695.507 1372.95 691.329 1356.22 688.61 1339.94 C 688.976 1339.6 689.389 1339.31 689.707 1338.93 C 692.172 1335.96 690.957 1306.87 691.026 1300.92 C 691.536 1256.29 697.414 1213.26 708.468 1170.04 C 715.58 1142.24 725.956 1115.06 736.399 1088.35 C 744.935 1066.52 776.498 1008.28 772.615 987.223 z"/>
<path transform="translate(0,0)" fill="rgb(247,197,141)" d="M 1198.11 1676.65 C 1202.18 1686.77 1210.51 1694.06 1220.4 1698.38 C 1247.23 1710.11 1277.59 1700.69 1303.97 1692.7 C 1292.79 1720.66 1279.33 1747.93 1266.47 1775.16 C 1253.9 1801.79 1241.95 1828.56 1227.96 1854.5 C 1103.56 1884.78 962.769 1888.6 838.422 1855.69 C 842.078 1853.77 847.788 1854.33 851.898 1854 C 879.671 1851.8 908.262 1848.59 935.271 1841.51 C 1028.4 1817.09 1135.71 1749.86 1198.11 1676.65 z"/>
<path transform="translate(0,0)" fill="rgb(247,197,141)" d="M 1143.16 1622.25 C 1154.95 1622.75 1164.8 1619.48 1174.63 1613.18 C 1192.12 1601.98 1206.25 1585.36 1220.77 1570.73 C 1258.68 1532.53 1304.5 1491.01 1357.91 1478.17 L 1358.68 1478.68 C 1380.1 1492.48 1403.79 1502.77 1424.83 1517.43 C 1464.3 1544.93 1485.4 1608.08 1497.36 1653.19 C 1499.74 1662.14 1502.42 1680.53 1513.22 1682.46 C 1512.24 1691.36 1509.66 1699.95 1507.07 1708.49 C 1505.03 1709.77 1502.98 1711.01 1500.81 1712.05 C 1490.86 1716.79 1480.08 1717.37 1469.72 1713.62 C 1438.74 1702.41 1422.14 1663.57 1409.49 1635.94 C 1362.98 1633.87 1321.16 1657.93 1277.5 1669.37 C 1254.39 1675.43 1228.72 1677.01 1204.88 1677.69 C 1202.23 1676.3 1201.28 1675.56 1198.24 1675.6 L 1196.9 1670.17 C 1193.52 1670 1190.11 1669.64 1186.75 1669.23 C 1170.8 1667.27 1162.45 1659.76 1153.02 1647.67 C 1156.19 1647.48 1158.83 1647.29 1161.81 1646.14 C 1162.14 1645.85 1162.45 1645.54 1162.79 1645.26 C 1165.9 1642.7 1168.02 1642.9 1171.8 1643.22 L 1173.72 1640.92 C 1167.93 1639.76 1163.36 1638.61 1158.01 1636.11 C 1152.25 1632.47 1147.77 1629.26 1144.12 1623.41 L 1143.16 1622.25 z"/>
<path transform="translate(0,0)" fill="rgb(197,136,73)" d="M 1158.31 1625.54 C 1178.66 1617.24 1201.27 1606.23 1219.48 1593.89 C 1262.15 1564.95 1290.97 1532.53 1345.31 1523.14 C 1359.93 1520.61 1378.5 1517.85 1391.37 1526.86 C 1369.86 1526.67 1350.26 1528.77 1329.97 1536.55 C 1312.81 1543.12 1297.11 1552.53 1282.27 1563.3 C 1247.77 1588.34 1205.38 1633.94 1158.31 1625.54 z"/>
<path transform="translate(0,0)" fill="rgb(62,15,46)" d="M 1158.31 1625.54 C 1205.38 1633.94 1247.77 1588.34 1282.27 1563.3 C 1297.11 1552.53 1312.81 1543.12 1329.97 1536.55 C 1350.26 1528.77 1369.86 1526.67 1391.37 1526.86 L 1395.9 1527.61 L 1396.71 1528.81 C 1389.05 1533.55 1371.39 1535.68 1361.88 1538.49 A 212.082 212.082 0 0 0 1326.94 1552.67 C 1274.73 1579.75 1237.84 1641.01 1173.72 1640.92 C 1167.93 1639.76 1163.36 1638.61 1158.01 1636.11 C 1152.25 1632.47 1147.77 1629.26 1144.12 1623.41 C 1149.06 1622.69 1153.64 1623.91 1158.31 1625.54 z"/>
<path transform="translate(0,0)" fill="rgb(62,15,46)" d="M 1171.8 1643.22 C 1175.78 1644.31 1180.38 1644.1 1184.49 1644.15 C 1227.33 1644.58 1263.46 1615.46 1300.66 1598.51 C 1321.2 1589.16 1342.85 1581.77 1365.65 1581.81 C 1372.85 1581.82 1383.83 1580.71 1389.19 1586.04 C 1398.62 1587.58 1407.62 1589.9 1416.72 1592.8 C 1394.3 1593.15 1372.88 1595.32 1351.85 1603.68 C 1290.21 1628.19 1276.77 1674.03 1196.9 1670.17 C 1193.52 1670 1190.11 1669.64 1186.75 1669.23 C 1170.8 1667.27 1162.45 1659.76 1153.02 1647.67 C 1156.19 1647.48 1158.83 1647.29 1161.81 1646.14 C 1162.14 1645.85 1162.45 1645.54 1162.79 1645.26 C 1165.9 1642.7 1168.02 1642.9 1171.8 1643.22 z"/>
<path transform="translate(0,0)" fill="rgb(197,136,73)" d="M 1171.8 1643.22 C 1175.78 1644.31 1180.38 1644.1 1184.49 1644.15 C 1227.33 1644.58 1263.46 1615.46 1300.66 1598.51 C 1321.2 1589.16 1342.85 1581.77 1365.65 1581.81 C 1372.85 1581.82 1383.83 1580.71 1389.19 1586.04 C 1371.83 1586.35 1355.33 1588.53 1339.04 1594.81 C 1288.11 1614.47 1257.65 1659.51 1196.34 1654.56 C 1184.07 1653.56 1173.55 1648.91 1161.81 1646.14 C 1162.14 1645.85 1162.45 1645.54 1162.79 1645.26 C 1165.9 1642.7 1168.02 1642.9 1171.8 1643.22 z"/>
<path transform="translate(0,0)" fill="rgb(247,197,141)" d="M 551.161 1579.25 C 561.53 1568.62 576.762 1561.54 588.695 1552.62 C 641.866 1512.91 709.97 1457.29 775.807 1442.25 C 809.162 1434.63 858.452 1459.23 887.237 1476.37 C 902.776 1485.62 917.436 1496.41 932.824 1505.96 C 930.765 1515.85 928.3 1525.69 925.989 1535.53 C 916.612 1528.61 907.687 1521.13 897.971 1514.68 C 876.063 1500.14 850.441 1489.11 825.566 1480.71 C 820.057 1478.84 810.37 1474.66 804.843 1477.41 L 806.094 1478.47 C 817.534 1489.61 832.592 1498.48 845.605 1507.68 C 872.054 1526.39 897.42 1545.56 919.674 1569.22 C 917.04 1579.91 914.637 1590.72 911.594 1601.3 C 879.561 1563.04 846.723 1544.78 801.671 1526.43 C 791.104 1522.13 779.213 1516.23 767.904 1514.7 L 765.587 1514.48 C 770.028 1521.15 781.138 1527.96 787.555 1533.13 C 830.59 1567.82 871.802 1589.69 901.192 1639.22 A 1493.8 1493.8 0 0 0 891.429 1665.9 C 886.875 1657.58 884.214 1649.9 878.112 1642.23 C 852.932 1610.6 811.377 1591.13 774.252 1577.03 C 765.475 1573.69 755.46 1569.36 746.148 1568.35 L 744.375 1568.38 C 748.164 1574.58 763.395 1583.42 769.95 1588.69 C 808.923 1620.04 852.765 1651.28 880.427 1693.61 A 287.255 287.255 0 0 1 872.473 1712.09 L 869.096 1719.17 C 858.699 1712.08 849.154 1703.42 839.033 1695.88 A 556.347 556.347 0 0 0 786.153 1661.61 C 777.751 1668.86 767.962 1674.19 757.597 1678.05 C 721.403 1691.55 685.569 1687.61 652.382 1668.06 C 645.576 1664.05 638.729 1656.55 631.552 1653.73 C 631.218 1653.59 630.864 1653.52 630.52 1653.41 C 632.034 1656.63 633.469 1659.94 635.224 1663.03 C 634.613 1664.12 634.037 1665.14 633.232 1666.11 C 623.01 1678.36 600.649 1686.04 585.137 1686.67 C 576.583 1687.02 567.827 1685.6 561.5 1679.36 C 545.032 1663.1 548.778 1610.49 549.201 1587.72 C 549.65 1584.91 550.502 1582.03 551.161 1579.25 z"/>
<path transform="translate(0,0)" fill="rgb(197,136,73)" d="M 616.191 1605.47 C 646.978 1634.97 678.475 1654.56 722.088 1653.79 C 744.235 1653.4 766.292 1650.32 788.096 1646.6 C 821.974 1658.79 846.245 1689.01 872.473 1712.09 L 869.096 1719.17 C 858.699 1712.08 849.154 1703.42 839.033 1695.88 A 556.347 556.347 0 0 0 786.153 1661.61 C 777.751 1668.86 767.962 1674.19 757.597 1678.05 C 721.403 1691.55 685.569 1687.61 652.382 1668.06 C 645.576 1664.05 638.729 1656.55 631.552 1653.73 C 631.218 1653.59 630.864 1653.52 630.52 1653.41 C 621.738 1639.94 618.503 1621.13 616.191 1605.47 z"/>
<path transform="translate(0,0)" fill="rgb(156,200,192)" d="M 893.376 378.174 C 895.272 375.199 894.53 338.186 896.092 329.986 C 899.477 312.206 907.513 295.054 917.326 279.954 C 944.53 238.093 985.829 210.489 1034.53 200.222 C 1076.57 191.362 1119.17 198.447 1155.11 222.316 C 1198.05 250.839 1213.89 291.649 1223.77 340.289 L 1224.25 340.225 L 1225.31 332.904 C 1227.71 364.522 1217.33 390.217 1199.26 415.518 C 1210.53 406.258 1219.2 392.85 1224.93 379.556 C 1242.07 339.78 1236.08 295.953 1220.72 256.835 C 1218.94 253.306 1217.32 249.673 1215.63 246.096 C 1218.09 242.694 1217.48 240.577 1217.39 236.566 L 1218.66 236.415 C 1221.3 238.191 1223.01 239.806 1225.08 242.215 C 1228.7 252.283 1234.09 263.489 1236.36 273.841 C 1240.32 284.144 1244.72 294.797 1246.48 305.743 C 1248.69 319.47 1248.1 333.575 1249.33 347.406 C 1250.73 363.123 1258.03 403.501 1268.74 414.492 C 1258.24 430.516 1241.14 445.279 1222.39 450.445 C 1186.89 448.771 1129.85 423.187 1102.89 401.654 C 1067.86 373.681 1046.75 332.011 1041.77 287.832 C 1040.27 301.6 1042.05 316.048 1045.11 329.498 C 1056.34 378.935 1077.9 403.301 1119.58 429.68 C 1075.53 421.788 1030.87 409.088 996.683 378.694 C 967.991 353.185 959.407 327.971 957.193 290.823 C 955.305 302.665 954.015 314.372 955.624 326.335 C 961.322 368.704 993.325 402.149 1030.51 420.421 C 1037.92 424.063 1054.55 428.676 1059.63 432.602 C 1056.58 432.98 1053.51 432.948 1050.43 433.011 C 1043.9 430.495 1034.16 430.528 1027.11 429.596 C 999.915 426.001 979.007 414.24 959.871 394.554 C 934.195 368.139 921.486 334.99 921.837 298.405 C 915.771 319.656 919.682 345.246 927.629 365.518 C 941.328 400.465 969.372 422.866 1002.91 437.59 C 982.905 441.967 965.441 436.492 947.366 427.704 C 927.971 418.273 900.671 399.186 893.376 378.174 z"/>
<path transform="translate(0,0)" fill="rgb(156,200,192)" d="M 1215.63 246.096 C 1218.09 242.694 1217.48 240.577 1217.39 236.566 L 1218.66 236.415 C 1221.3 238.191 1223.01 239.806 1225.08 242.215 C 1228.7 252.283 1234.09 263.489 1236.36 273.841 C 1232.11 272.601 1230.98 259.728 1228.4 255.819 C 1227.45 254.377 1224.5 254.341 1222.81 253.952 C 1222.41 252.052 1221.99 250.543 1221.11 248.813 L 1219.61 248.574 C 1219.92 251.058 1220.69 252.492 1221.78 254.685 L 1220.72 256.835 C 1218.94 253.306 1217.32 249.673 1215.63 246.096 z"/>
<path transform="translate(0,0)" fill="rgb(252,251,247)" d="M 1024.83 225.409 C 1044.4 224.267 1065.61 227.321 1084.33 233.021 C 1038.31 245.348 991.767 256.316 956.02 290.347 C 943.483 299.134 933.991 310.381 928.701 324.691 C 929.372 302.212 939.982 281.982 954.061 264.95 C 972.741 242.353 995.478 228.236 1024.83 225.409 z"/>
<path transform="translate(0,0)" fill="rgb(208,7,38)" d="M 1310.82 1122.03 C 1330.99 1126.82 1351.09 1137.5 1370.15 1145.55 C 1475.34 1190.01 1559.22 1252.3 1619.86 1350.53 C 1641.48 1385.53 1659.77 1424.29 1671.42 1463.8 C 1675.76 1478.53 1681.36 1509.07 1687.26 1521.01 C 1669.26 1552.59 1642.62 1586.08 1618.6 1613.2 L 1617.61 1612.57 C 1608.83 1606.84 1600.87 1600.1 1593.38 1592.77 C 1579.32 1579.02 1543.3 1537.64 1538.5 1520.06 C 1535.83 1510.28 1539.93 1472.63 1540.42 1460.72 C 1542.19 1417.71 1542.54 1373.89 1540.15 1330.9 C 1539.43 1318.02 1539.16 1304.2 1536.36 1291.59 C 1536.27 1291.19 1536.17 1290.79 1536.07 1290.39 C 1531.04 1323.64 1528.28 1357.38 1524.66 1390.82 C 1521.23 1422.41 1516.93 1453.87 1513.28 1485.43 C 1510.92 1505.9 1510.17 1527.14 1506.47 1547.38 C 1503.35 1539.58 1499.72 1531.89 1496.1 1524.31 C 1479.93 1490.43 1449.82 1440.99 1419.64 1418.69 C 1409.4 1411.13 1398.32 1406.33 1386.38 1402.12 C 1399.39 1350.24 1411.05 1240.17 1400.44 1187.62 C 1379.36 1205.19 1358.62 1221.85 1334.36 1234.93 C 1329.2 1196.15 1321.52 1159.65 1310.82 1122.03 z"/>
<path transform="translate(0,0)" fill="rgb(208,7,38)" d="M 666.134 1124.2 C 643.688 1230.54 651.293 1310.24 697.688 1408.93 C 706.632 1390.08 712.944 1370.93 724.459 1353.27 C 749.759 1359.04 774.388 1367.56 799.357 1374.57 C 847.341 1388.05 895.752 1400.7 943.973 1413.33 C 941.617 1436.04 939.519 1458.74 936.018 1481.31 C 927.952 1475.63 919.844 1469.92 911.48 1464.68 C 874.5 1441.53 817.596 1413.82 773.728 1420.96 C 752.112 1424.48 732.194 1434.29 712.744 1443.9 C 684.257 1457.98 657.812 1473.48 631.919 1491.93 C 618.274 1501.65 592.993 1525.81 579.834 1531.6 C 570.857 1535.54 559.112 1535.42 549.45 1536.83 C 542.768 1537.81 536.156 1539.4 529.583 1540.93 C 521.359 1503.85 518.094 1466.23 513.429 1428.61 C 507.525 1381 500.96 1333.21 497.549 1285.36 L 498.105 1286.75 L 497.096 1287.43 C 496.217 1299.3 497.289 1311.38 497.407 1323.28 C 497.506 1333.2 496.698 1343.05 495.824 1352.92 C 488.363 1402.68 481.269 1452.23 475.1 1502.17 C 472.454 1523.59 468.178 1545.7 467.984 1567.27 C 443.771 1582.01 441.626 1594.81 432.25 1619.82 C 406.435 1593.31 366.6 1539.82 349.992 1507 C 354.983 1462.54 370.815 1417.03 389.471 1376.59 C 418.515 1313.63 465.662 1253.09 519.725 1209.66 C 537.287 1195.55 556.326 1183.42 575.286 1171.31 C 603.008 1153.6 635.207 1135.59 666.134 1124.2 z"/>
<path transform="translate(0,0)" fill="rgb(252,239,220)" d="M 968.676 1389.04 C 1114.56 1363.36 1252.8 1320.06 1375.76 1235.28 C 1373.94 1273.88 1309.92 1388.56 1287.73 1425.23 C 1270.44 1453.79 1251.46 1482.24 1232.24 1509.53 C 1223.76 1521.57 1179.8 1576.97 1178.06 1584.7 C 1171.48 1590.95 1143.04 1614.55 1141.48 1620.44 L 1143.16 1622.25 L 1144.12 1623.41 C 1147.77 1629.26 1152.25 1632.47 1158.01 1636.11 C 1163.36 1638.61 1167.93 1639.76 1173.72 1640.92 L 1171.8 1643.22 C 1168.02 1642.9 1165.9 1642.7 1162.79 1645.26 C 1162.45 1645.54 1162.14 1645.85 1161.81 1646.14 C 1158.83 1647.29 1156.19 1647.48 1153.02 1647.67 C 1162.45 1659.76 1170.8 1667.27 1186.75 1669.23 C 1190.11 1669.64 1193.52 1670 1196.9 1670.17 L 1198.24 1675.6 L 1198.11 1676.65 C 1135.71 1749.86 1028.4 1817.09 935.271 1841.51 C 908.262 1848.59 879.671 1851.8 851.898 1854 C 847.788 1854.33 842.078 1853.77 838.422 1855.69 L 819.261 1851.45 C 828.566 1838.2 838.609 1825.73 847.176 1811.93 C 901.169 1724.96 933.546 1624.4 951.158 1524.03 C 958.989 1479.41 963.866 1434.08 968.676 1389.04 z"/>
<path transform="translate(0,0)" fill="rgb(247,197,141)" d="M 789.409 788.548 C 796.1 781.051 795.945 767.872 802.613 759.829 C 807.448 753.997 816.35 750.303 822.458 745.672 C 839.462 732.78 853.728 715.671 864.855 697.589 C 874.201 682.399 883.057 666.949 890.585 650.767 C 900.604 629.228 908.903 606.908 919.574 585.652 C 937.54 549.863 966.471 508.32 999.125 484.479 A 141.359 141.359 0 0 1 1061.14 459.368 C 1105.8 453.256 1206.35 473.759 1251.6 486.59 C 1271.69 492.284 1292.51 501.921 1313.07 504.961 C 1313.42 505.014 1313.78 505.056 1314.14 505.104 C 1351.6 560.569 1361.18 632.937 1357.69 698.511 C 1356.5 720.844 1352.67 743.055 1352.27 765.417 C 1351.89 786.222 1353.02 807.069 1352.99 827.881 A 585.887 585.887 0 0 1 1343.26 936.462 C 1329.96 1005.35 1301.47 1061.34 1254.09 1112.91 C 1238.83 1129.53 1222.34 1145.51 1203.56 1158.13 C 1175.1 1177.26 1145.19 1187.8 1110.82 1188.14 L 1112.59 1187.32 C 1120.75 1183.64 1129.21 1181.44 1137.3 1177.25 C 1169.66 1160.53 1196.12 1130.77 1210.36 1097.45 C 1203.69 1105 1198.7 1114 1191.87 1121.65 C 1164.41 1152.43 1127.33 1171.91 1086.01 1174.29 C 1048.66 1176.44 1011.56 1166.49 983.331 1141.13 C 968.027 1127.39 958.059 1111.63 947.694 1094.2 L 947.002 1094.34 C 949.032 1100.71 952.612 1106.76 955.754 1112.65 C 971.334 1141.88 993.407 1164.39 1022.83 1179.68 C 1056.16 1196.99 1085.1 1199.93 1121.94 1200.28 C 1062.94 1216.15 1006.54 1216.15 952.133 1184.91 C 876.709 1141.59 819.609 1024.26 797.711 941.484 C 785.535 895.458 776.901 835.151 789.409 788.548 z"/>
<path transform="translate(0,0)" fill="rgb(231,170,109)" d="M 970.315 659.931 L 971.074 658.267 L 976.432 660.506 C 976.994 666.073 971.904 685.539 968.254 689.761 C 967.257 690.915 967.407 690.488 965.578 690.532 L 964.303 686.74 C 965.491 677.526 967.628 668.815 970.315 659.931 z"/>
<path transform="translate(0,0)" fill="url(#Gradient5)" d="M 943.064 760.201 L 945.29 760.093 L 945.235 760.715 C 938.245 764.058 931.297 767.468 924.645 771.452 C 892.142 790.921 868.165 814.25 858.696 851.817 L 858.601 853.075 C 858.45 852.62 858.214 852.185 858.149 851.711 C 856.326 838.558 864.527 821.401 871.04 810.43 C 885.663 785.797 915.759 767.005 943.064 760.201 z"/>
<path transform="translate(0,0)" fill="rgb(62,15,46)" d="M 906.792 690.538 C 916.158 691.725 926.728 693.843 936.126 692.183 C 952.671 689.26 961.305 672.344 970.315 659.931 C 967.628 668.815 965.491 677.526 964.303 686.74 C 963.422 689.105 962.481 691.169 961.089 693.287 C 956.782 699.844 951.54 704.858 943.621 706.245 C 927.669 709.038 918.575 698.747 906.792 690.538 z"/>
<path transform="translate(0,0)" fill="rgb(62,15,46)" d="M 1269.73 637.171 C 1281.1 636.239 1290.69 636.848 1299.93 644.48 C 1318.48 659.793 1323.52 690.348 1325.36 712.815 C 1320.65 697.312 1316.33 680.975 1307.91 666.991 C 1301.29 656.008 1292.96 648.263 1280.29 645.192 A 72.7986 72.7986 0 0 0 1275.33 645.392 C 1247.22 647.65 1225.09 679.775 1208.71 699.618 A 79.1759 79.1759 0 0 1 1211.16 694.456 C 1224.37 668.737 1241.4 646.241 1269.73 637.171 z"/>
<path transform="translate(0,0)" fill="rgb(62,15,46)" d="M 1012.09 603.357 C 1018.52 602.839 1027.46 605.377 1033.21 608.117 C 1058.11 619.997 1071.49 650.075 1079.88 674.609 C 1066.41 657.511 1057.45 637.372 1039.32 624.171 C 1027.15 615.311 1014.77 612.877 1000.14 615.296 C 975.504 622.661 944.99 656.751 927.524 675.919 A 292.782 292.782 0 0 1 946.369 648.231 C 963.796 625.707 982.936 607.117 1012.09 603.357 z"/>
<path transform="translate(0,0)" fill="rgb(62,15,46)" d="M 1247.63 528.296 C 1261.37 527.062 1275.29 529.671 1287.26 536.669 C 1318.03 554.655 1323.95 595.516 1332.03 627.007 C 1328.54 621.17 1325.69 614.814 1322.65 608.722 C 1319.88 603.868 1316.99 599.151 1313.77 594.578 C 1290.36 561.345 1258.77 544.437 1219.49 537.453 C 1228.53 532.673 1237.55 529.907 1247.63 528.296 z"/>
<path transform="translate(0,0)" fill="rgb(62,15,46)" d="M 1261.13 701.181 C 1270.57 700.624 1278.28 701.041 1286.94 705.542 C 1305.27 715.07 1313.85 734.426 1319.35 753.201 C 1312.59 746.759 1305.32 741.211 1296.9 737.087 C 1281.63 729.607 1266.46 729.08 1250.44 734.632 C 1231.53 743.012 1216.95 757.806 1204.47 773.909 C 1208.26 759.685 1213.49 745.658 1221.12 733.019 C 1230.63 717.254 1243.02 705.768 1261.13 701.181 z"/>
<path transform="translate(0,0)" fill="rgb(62,15,46)" d="M 1043.5 499.174 C 1049.82 498.89 1056.25 498.433 1062.54 499.251 C 1082.09 501.792 1096.66 514.384 1108.38 529.367 C 1096.75 524.675 1085.17 521.378 1072.54 521.288 C 1039.07 521.049 1010.11 536.649 986.835 559.734 C 974.173 573.149 963.541 588.154 952.466 602.856 A 217.523 217.523 0 0 1 977.93 547.446 C 993.44 523.775 1015.34 504.98 1043.5 499.174 z"/>
<path transform="translate(0,0)" fill="rgb(62,15,46)" d="M 1019.04 670.268 C 1019.34 670.243 1019.65 670.208 1019.96 670.191 C 1032.9 669.488 1044.27 672.783 1054.06 681.56 C 1071.61 697.298 1080.08 724.275 1081.48 747.149 C 1067.52 726.285 1050.19 707.021 1024.87 700.973 C 993.031 696.818 966.784 713.524 942.176 731.701 C 948.267 723.324 955.461 715.863 962.575 708.362 C 978.661 691.4 995.072 674.462 1019.04 670.268 z"/>
<path transform="translate(0,0)" fill="rgb(62,15,46)" d="M 1174.23 672.658 C 1176.21 678.31 1173.58 693.293 1173.71 700.18 C 1174.24 728.978 1177.88 758.035 1188.36 784.986 C 1192.67 785.231 1196.8 785.691 1200.98 786.794 C 1216.93 791.005 1232.39 800.169 1240.67 814.791 L 1241.31 815.938 C 1241.31 813.885 1241.4 811.927 1241.63 809.887 C 1247.73 817.362 1250.76 829.58 1255.54 838.217 C 1271.16 866.439 1296.45 902.955 1320.8 923.724 C 1312.29 965.724 1264.92 1044.83 1238.56 1079.73 C 1261.14 1029.31 1285.43 979.628 1306.36 928.453 L 1285.37 908.915 L 1258.98 918.716 C 1236.86 967.864 1230.81 1026.58 1193.41 1067.65 C 1170.62 1092.68 1139.77 1105.63 1106.03 1106.98 C 1066.32 1108.57 1028.9 1098.26 999.552 1070.72 C 954.149 1028.13 944.662 950.664 942.906 891.574 C 930.791 919.346 918.33 946.979 907.796 975.407 C 902.056 990.9 894.609 1019.1 887.511 1032.37 C 886.342 1029.67 887.104 1026.73 887.376 1023.85 C 894.321 970.974 909.166 906.474 935.597 859.962 C 926.691 857.472 916.145 853.749 906.801 855.143 C 896.536 856.675 891.716 863.269 885.978 871.045 C 890.03 860.788 894.78 850.091 905.599 845.51 C 918.685 839.969 935.544 842.225 949.546 841.498 C 1004.99 838.619 1044.26 807.552 1082.54 770.876 A 91.7021 91.7021 0 0 1 1081.46 772.703 C 1053.24 819.624 1014.74 846.716 962.144 859.947 C 962.498 860.186 962.85 860.43 963.207 860.666 C 978.935 871.006 1000.21 877.633 1017.92 883.908 A 538.501 538.501 0 0 0 1084.76 902.456 C 1155.31 917.835 1210.57 915.963 1280.98 902.058 C 1265.64 884.159 1248.19 855.028 1243.26 832.11 C 1239.56 844.176 1234.35 853.679 1223.32 860.64 C 1206.75 871.097 1184.04 871.667 1165.5 866.984 C 1135 859.276 1119.12 846.409 1103.16 819.822 C 1116.17 830.044 1128.42 838.236 1144.08 843.95 C 1163.42 851.004 1188.12 855.283 1207.47 845.799 C 1213.46 842.861 1220.04 838.169 1222.03 831.442 C 1227.78 811.949 1206.05 808.494 1195.08 799.588 C 1187.05 793.073 1180.55 784.19 1175.88 775.026 C 1159.15 742.149 1163.17 706.456 1174.23 672.658 z"/>
<path transform="translate(0,0)" fill="rgb(252,251,247)" d="M 956.83 952.709 C 961.131 958.853 964.036 966.763 967.67 973.43 C 980.872 997.651 996.573 1019.48 1019.19 1035.8 A 140.973 140.973 0 0 0 1123.1 1060.55 C 1169.03 1053.1 1191.16 1027.61 1216.76 991.894 C 1214.07 998.85 1210.88 1005.58 1207.74 1012.34 C 1201.58 1026.55 1192.57 1040.13 1182.64 1051.98 C 1163.76 1074.51 1141.51 1086.37 1112.06 1088.77 C 1074.66 1091.82 1038.36 1083.35 1009.33 1058.67 C 980.217 1033.91 959.771 990.636 956.83 952.709 z"/>
<path transform="translate(0,0)" fill="rgb(226,43,44)" d="M 1015.18 976.354 C 1036.6 974.477 1058.45 980.111 1078.33 987.642 C 1105.12 997.794 1137.23 1015.9 1149.4 1043.13 C 1138.96 1048.05 1128.57 1050.87 1117.23 1052.85 C 1097.77 1055.14 1077.96 1054.55 1059.1 1048.86 C 1026.17 1038.93 999.972 1016.91 983.852 986.523 C 993.929 980.142 1003.52 977.783 1015.18 976.354 z"/>
<path transform="translate(0,0)" fill="rgb(252,251,247)" d="M 970.864 874.431 C 985.658 879.078 1000.98 888.575 1016.17 894.114 C 1088.76 920.581 1164.48 937.109 1241.62 922.595 C 1235.66 933.192 1229.62 942.661 1221.61 951.835 C 1215.03 958.145 1208.22 963.287 1199.9 967.139 C 1160.9 985.209 1107.39 976.49 1068.65 962.188 C 1025.92 946.407 990.25 916.188 970.864 874.431 z"/>
</svg>