<svg version="1.1" xmlns="http://www.w3.org/2000/svg" style="display: block;" viewBox="0 0 2048 2048" width="1024" height="1024">
<defs>
	<linearGradient id="Gradient1" gradientUnits="userSpaceOnUse" x1="1078.72" y1="1166.04" x2="1068.97" y2="1159.76">
		<stop class="stop0" offset="0" stop-opacity="1" stop-color="rgb(250,247,220)"/>
		<stop class="stop1" offset="1" stop-opacity="1" stop-color="rgb(254,255,255)"/>
	</linearGradient>
</defs>
<path transform="translate(0,0)" fill="rgb(235,70,63)" d="M 0 0 L 2048 0 L 2048 2048 L 0 2048 L 0 0 z"/>
<path transform="translate(0,0)" fill="rgb(120,15,24)" d="M 531.497 199.805 A 1849.09 1849.09 0 0 1 521.786 177.275 C 516.667 165.029 498.532 113.928 504.432 101.486 C 505.028 100.23 504.813 100.146 506.107 99.8706 C 508.361 99.3914 510.532 100.112 512.617 100.946 C 522.541 104.917 531.821 110.538 541.799 114.58 C 559.407 121.713 577.67 127.384 594.983 135.225 A 169.621 169.621 0 0 1 618.973 148.415 C 641.882 163.571 657.802 185.472 663.418 212.577 C 670.474 213.894 677.298 215.526 684.208 217.471 A 152.592 152.592 0 0 1 703.844 204.301 C 727.461 190.843 754.475 182.694 781.456 190.165 C 806.681 197.149 826.517 218.364 838.788 240.736 C 849.198 259.715 859.016 284.596 852.394 306.309 C 846.115 326.899 829.813 339.457 811.61 349.164 C 822.33 367.264 832.511 386.413 844.709 403.523 C 852.845 399.353 864.18 397.215 873.104 394.975 C 933.302 379.866 996.898 373.708 1058.89 373.115 C 1061.04 371.425 1061.8 371.354 1062.34 368.709 C 1055.65 357.346 1026.32 347.041 1032.5 324.408 C 1035.77 312.432 1101.42 257.978 1115.71 247.428 C 1124.46 240.959 1133.76 234.88 1143.75 230.472 C 1153.14 226.325 1166.86 224.482 1176.66 228.125 C 1182.3 230.22 1186.79 236.089 1192.14 237.658 C 1195.38 238.608 1200.47 237.4 1203.8 237.066 C 1215.66 235.876 1227.63 243.748 1235.15 252.459 C 1248.81 254.599 1258.65 257.841 1266.99 269.622 C 1282.39 291.351 1295.66 314.599 1309.54 337.289 C 1319.33 353.289 1329.83 368.86 1339.42 384.983 C 1350.11 402.95 1359.76 421.53 1369.4 440.07 C 1379.91 442.513 1410.94 463.421 1421.23 469.983 C 1499.7 520.019 1554.63 566.599 1614.79 638.164 C 1636.25 663.693 1656.34 689.419 1674.01 717.747 C 1731.18 809.378 1773.05 910.351 1787.9 1017.79 C 1805.03 1011.14 1932.69 963.497 1939.87 964.387 C 1941.88 966.673 1942.21 967.072 1942.77 970.041 C 1940.79 975.627 1937.45 980.618 1934.79 985.896 C 1930.74 993.902 1927.19 1002.21 1923.62 1010.44 C 1907.81 1046.92 1892.43 1084.05 1878.03 1121.11 C 1867.81 1147.41 1859.11 1174.43 1850.01 1201.13 C 1795.75 1360.43 1753.63 1533.32 1758.08 1702.56 C 1740.75 1706 1723.56 1710.13 1706.12 1713.01 A 765.842 765.842 0 0 1 1526.83 1721.39 C 1516.36 1720.75 1498.86 1721.65 1489.29 1718.48 A 867.209 867.209 0 0 1 1142.92 1885.11 C 1142.87 1892.25 1145.97 1905.21 1143 1911.45 C 1142.07 1913.41 1141.19 1913.94 1139.35 1914.86 C 1124.94 1922.1 1059.52 1933.57 1039.83 1936.88 C 868.74 1965.69 691.317 1959.35 521.153 1928.08 C 467.789 1918.27 414.96 1906.54 363.154 1890.25 A 1400.78 1400.78 0 0 1 375.497 1764.86 C 378.174 1746.12 388.599 1697.09 387.472 1680.66 C 386.825 1671.22 381.622 1660.85 378.641 1651.88 A 1696.74 1696.74 0 0 1 367.573 1616.43 C 362.684 1600.12 358.61 1583.9 355.118 1567.24 C 352.7 1555.7 351.003 1543.2 347.281 1532.04 C 341.377 1525.77 336.679 1515.5 332.565 1507.88 A 710.371 710.371 0 0 1 273.58 1362.09 C 227.719 1198.65 233.395 1013.03 299.7 855.749 C 307.346 837.614 314.759 818.727 324.411 801.545 C 305.56 796.859 289.58 792.767 272.965 782.05 C 252.172 768.638 234.064 748.871 222.461 727.008 C 218.183 718.947 215.289 709.908 210.558 702.134 C 204.841 692.742 194.931 685.358 188.572 676.095 C 181.293 665.492 177.364 652.646 169.725 642.462 C 160.887 630.679 148.688 624.267 140.751 610.689 C 134.182 599.451 129.683 586.178 127.018 573.476 A 128.312 128.312 0 0 1 145.81 474.992 C 169.558 439.434 222.421 399.494 264.744 391.129 C 288.62 324.941 339.792 275.91 398.988 240.352 C 393.272 226.99 379.624 207.364 378.342 193.551 C 378.117 191.123 378.172 189.818 379.715 187.851 C 392.901 185.787 411.934 195.747 425.988 197.191 C 442.679 198.907 459.181 198.788 475.921 198.247 C 494.338 197.652 513.466 195.372 531.497 199.805 z"/>
<path transform="translate(0,0)" fill="rgb(254,254,254)" d="M 762.034 280.356 C 765.234 280.621 767.014 280.308 769.596 282.296 C 769.785 285.012 768.868 287.019 767.985 289.525 C 767.329 291.385 767.582 290.569 767.106 292.722 C 764.508 289.684 762.334 287.412 761.383 283.463 L 762.034 280.356 z"/>
<path transform="translate(0,0)" fill="rgb(254,254,254)" d="M 646.907 230.063 C 649.552 229.991 651.207 229.905 653.697 230.964 C 656.628 233.611 657.131 237.872 658.079 241.561 L 651.753 249.92 L 650.424 250.64 C 649.191 244.159 650.708 240.614 646.205 235.002 C 645.115 233.645 644.742 233.363 644.255 231.641 L 646.907 230.063 z"/>
<path transform="translate(0,0)" fill="rgb(173,43,44)" d="M 635.09 250.657 C 638.543 254.69 641.102 257.529 642.311 262.889 C 641.068 264.871 640.098 266.003 638.204 267.38 C 634.144 266.435 630.451 260.562 627.755 257.352 C 629.283 254.687 628.745 254.004 628.247 251.055 L 635.09 250.657 z"/>
<path transform="translate(0,0)" fill="rgb(254,254,254)" d="M 635.09 250.657 C 632.555 246.847 629.243 243.22 630.277 238.362 C 630.661 236.555 631.316 236.144 632.472 234.823 C 634.78 234.559 635.921 234.37 637.884 236.026 C 643.289 240.585 643.187 254.216 642.618 260.953 C 642.563 261.604 642.413 262.244 642.311 262.889 C 641.102 257.529 638.543 254.69 635.09 250.657 z"/>
<path transform="translate(0,0)" fill="rgb(254,254,254)" d="M 836.917 1037.6 C 871.156 1022.03 926.461 999.531 963.745 1000.86 L 964.325 1001.69 L 959.288 1003.76 C 930.186 1007.38 901.229 1017.85 873.418 1026.75 C 863.735 1029.85 846.768 1037.54 836.917 1037.6 z"/>
<path transform="translate(0,0)" fill="url(#Gradient1)" d="M 1118.25 1102.2 L 1123.48 1105.89 C 1112.07 1117.95 1102.11 1131.81 1091.81 1144.83 A 4801.66 4801.66 0 0 0 1031.22 1222.93 C 1032.1 1198.59 1095.35 1134.79 1111.44 1112.33 C 1114.23 1109.15 1116.18 1105.88 1118.25 1102.2 z"/>
<path transform="translate(0,0)" fill="rgb(254,254,254)" d="M 716.995 250.947 C 717.788 251.754 717.435 251.188 717.481 252.888 C 711.02 261.392 706.348 270.84 703.815 281.251 C 699.857 297.524 702.551 311.531 711.28 325.715 L 699.896 324.988 C 698.158 325.126 696.134 325.442 694.409 325.262 C 691.6 324.968 690.08 323.869 688.337 321.728 C 684.62 317.161 684.844 311.122 685.526 305.615 C 688.387 282.485 698.64 265.2 716.995 250.947 z"/>
<path transform="translate(0,0)" fill="rgb(254,254,254)" d="M 491.296 743.909 C 495.273 744.765 501.25 745.276 503.766 748.789 C 508.365 755.208 499.818 765.874 497.514 772.046 C 495.716 776.863 494.47 782.031 493.525 787.078 C 489.312 809.574 501.431 824.705 501.191 826.484 L 496.743 826.224 C 494.12 824.57 491.862 822.566 489.642 820.405 C 475.117 806.259 472.199 788.602 472.045 769.273 C 476.45 769.297 480.738 769.681 484.366 766.73 C 490.371 761.846 490.313 751.085 491.296 743.909 z"/>
<path transform="translate(0,0)" fill="rgb(254,254,254)" d="M 453.412 760.6 C 456.5 760.985 458.899 761.411 461.728 762.735 C 462.227 764.911 453.345 782.981 455.191 797.201 C 457.227 812.892 465.66 823.241 477.914 832.389 L 467.528 833.653 C 459.94 832.695 453.293 830.712 447.35 825.684 C 439.871 819.357 436.46 809.796 436.037 800.21 C 435.343 784.49 443.065 771.616 453.412 760.6 z"/>
<path transform="translate(0,0)" fill="rgb(254,254,254)" d="M 515.698 115.526 C 554.952 140.123 618.084 155.356 640.649 197.538 C 634.815 195.621 623.975 179.421 616.024 174.644 C 588.331 158.006 548.067 148.646 524.522 128.993 C 528.172 138.541 552.92 193.05 552.075 198.1 C 551.739 197.951 551.38 197.846 551.068 197.652 C 540.956 191.356 519.224 129.615 515.698 115.526 z"/>
<path transform="translate(0,0)" fill="rgb(254,254,254)" d="M 1157.33 1081.69 C 1158.71 1085.97 1158.08 1091.39 1158.06 1095.89 C 1144.41 1109.03 1132.7 1124.68 1120.54 1139.22 C 1104.64 1158.26 1088.29 1176.89 1072.81 1196.28 C 1060.01 1212.31 1047.19 1230.58 1031.91 1244.34 C 1031.89 1244.25 1031.85 1244.16 1031.84 1244.07 C 1031.58 1238.46 1044.02 1224.49 1047.78 1219.35 C 1068.93 1190.45 1090.2 1161.96 1112.98 1134.3 C 1127.56 1116.6 1143.58 1100.07 1157.33 1081.69 z"/>
<path transform="translate(0,0)" fill="rgb(254,254,254)" d="M 400.66 211.026 C 461.3 226.063 526.341 203.196 585.098 228.575 C 567.314 229.586 548.005 224.172 529.972 223.531 C 509.025 222.787 487.927 224.272 466.983 224.845 C 450.914 225.284 434.826 224.851 418.749 225.052 C 422.622 233.655 431.345 248.623 430.514 257.844 C 419.138 243.746 410.073 226.525 400.66 211.026 z"/>
<path transform="translate(0,0)" fill="rgb(254,254,254)" d="M 478.44 849.015 L 491.261 849.014 L 492.624 850.565 C 488.937 860.929 481.875 871.28 476.62 881.075 C 465.133 902.488 453.63 923.853 443.821 946.106 L 426.379 946.896 C 440.11 912.649 459.624 880.67 478.44 849.015 z"/>
<path transform="translate(0,0)" fill="rgb(121,127,128)" d="M 1148.35 994.612 C 1151.63 995.195 1154.97 995.683 1158.19 996.505 C 1157.52 1020.37 1156.3 1044.27 1157.63 1068.13 C 1146.24 1080.32 1135.58 1094.64 1123.48 1105.89 L 1118.25 1102.2 C 1132.66 1067.9 1142.1 1031.23 1148.35 994.612 z"/>
<path transform="translate(0,0)" fill="rgb(254,254,254)" d="M 887.173 998.142 C 886.787 998.362 886.407 998.595 886.014 998.802 C 882.901 1000.44 831.851 1003.74 822.776 1005.14 C 798.066 1008.93 782.682 1016.81 761.233 1029.03 C 716.868 1054.3 677.84 1088.09 660.287 1137.63 C 657.424 1145.71 655.864 1162.86 652.163 1168.56 L 651.662 1167.28 C 656.508 1124.41 675.264 1086.38 705.443 1055.39 C 725.789 1034.5 754.939 1014.95 783.126 1006.86 C 808.837 999.474 859.316 998.388 887.173 998.142 z"/>
<path transform="translate(0,0)" fill="rgb(254,254,254)" d="M 403.602 1710.39 C 407.193 1717.35 410.984 1724.27 413.69 1731.63 C 407.704 1771.84 402.756 1812.12 397.483 1852.42 C 396.383 1860.83 395.657 1881.61 393.658 1887.89 C 393.429 1888.61 392.731 1889.09 392.267 1889.69 C 389.232 1888.69 385.159 1887.93 383.212 1885.3 C 381.686 1869.98 385.343 1851.9 387.012 1836.47 A 2265.01 2265.01 0 0 1 403.602 1710.39 z"/>
<path transform="translate(0,0)" fill="rgb(254,254,254)" d="M 863.147 1110.98 C 866.691 1105.56 870.686 1100.95 875.179 1096.32 C 900.003 1070.75 991.262 996.019 1021.08 984.545 C 1051.41 972.874 1130.73 964.388 1164.86 963.984 C 1161.59 974.837 1159.33 985.206 1158.19 996.505 C 1154.97 995.683 1151.63 995.195 1148.35 994.612 C 1149.41 989.157 1150.95 983.692 1152.25 978.284 C 1153.21 975.696 1153.95 974.928 1153.08 972.243 C 1145.97 969.031 1091.52 976.799 1081.16 978.857 A 193.258 193.258 0 0 0 1052.24 986.886 C 1044.59 989.726 1037.44 993.432 1030.49 997.694 C 1021.52 1003.19 990.257 1027.02 983.245 1027.88 C 992.147 1020.44 1032.04 994.235 1035.74 988.48 L 1034.86 987.189 C 1013.91 985.158 938.233 1046.05 920.443 1061.12 C 901.182 1077.43 883.258 1095.74 863.147 1110.98 z"/>
<path transform="translate(0,0)" fill="rgb(254,254,254)" d="M 872.87 667.36 C 875.272 666.952 876.785 666.721 879.142 667.418 C 885.345 674.165 886 685.21 886.634 693.977 C 880.518 696.018 875.151 698.926 869.258 701.416 C 848.918 710.012 825.666 706.788 805.739 698.611 C 795.749 694.207 788.864 689.316 780.74 682.02 C 808.92 682.832 844.07 671.496 872.87 667.36 z"/>
<path transform="translate(0,0)" fill="rgb(254,254,254)" d="M 366.396 702.419 C 373.961 706.907 381.573 715.735 388.395 721.548 C 396.153 728.16 404.419 734.142 412.188 740.754 C 408.173 746.612 403.217 751.617 397.882 756.284 C 376.832 774.699 353.714 781.435 326.209 779.542 A 381.751 381.751 0 0 0 335.397 777.369 C 351.909 773.176 367.032 764.354 375.686 749.197 C 377.469 746.074 379.293 742.755 378.283 739.206 C 373.999 739.613 368.377 747.503 364.757 750.169 C 357.129 755.787 347.158 758.373 338.242 761.307 C 326.236 764.211 313.833 766.345 301.484 764.478 C 269.166 759.594 250.54 734.95 232.491 710.322 C 238.752 714.896 245.76 717.834 252.337 721.847 C 269.748 732.473 283.325 743.82 304.46 745.309 C 321.732 746.525 339.425 742.116 352.522 730.389 C 361.111 722.699 365.897 713.935 366.396 702.419 z"/>
<path transform="translate(0,0)" fill="rgb(235,70,63)" d="M 524.522 128.993 C 548.067 148.646 588.331 158.006 616.024 174.644 C 623.975 179.421 634.815 195.621 640.649 197.538 C 644.165 202.684 646.617 208.058 649.086 213.753 A 366.688 366.688 0 0 1 637.802 215.64 C 626.321 198.918 605.633 190.586 586.486 186.439 C 595.603 191.818 622.607 207.436 624.57 218.001 C 624.812 219.304 624.692 220.615 623.843 221.647 C 622.292 223.532 619.368 224.773 616.955 224.971 C 609.262 225.602 596.417 214.284 588.896 211.071 C 576.877 205.937 564.109 202.994 552.075 198.1 C 552.92 193.05 528.172 138.541 524.522 128.993 z"/>
<path transform="translate(0,0)" fill="rgb(254,254,254)" d="M 837.41 305.746 C 831.692 320.369 822.721 330.662 808.115 337.013 C 791.632 344.179 773.486 344.987 756.765 338.171 C 740.695 331.619 725.474 320.451 718.8 303.888 C 713.766 291.394 714.393 276.817 719.853 264.561 C 724.062 255.112 731.07 246.111 741.019 242.392 C 749.889 239.076 760.383 239.884 768.798 244.133 C 777.601 248.579 783.649 256.564 786.407 265.948 C 788.214 272.097 788.551 279.001 785.333 284.756 C 783.096 288.757 778.016 293.731 773.355 294.645 C 770.613 295.182 769.326 294.043 767.106 292.722 C 771.839 291.627 775.81 290.235 778.494 285.903 C 780.941 281.953 781.062 277.134 779.842 272.753 C 777.999 266.134 773.209 260.041 767.128 256.812 C 763.006 254.623 758.107 253.899 753.611 255.317 C 747.139 257.359 741.802 263.231 738.95 269.224 C 735.46 276.557 735.502 284.863 738.232 292.441 C 742.603 304.574 752.569 313.317 764.241 318.258 C 773.526 322.189 783.379 323.693 792.972 319.885 C 806.186 314.64 815.081 301.721 820.265 288.965 C 826.242 274.255 826.456 260.693 825.062 245.1 C 835.172 263.455 843.448 284.698 837.41 305.746 z"/>
<path transform="translate(0,0)" fill="rgb(250,238,214)" d="M 1068.31 1677.38 L 1074.66 1691.14 C 1067.8 1715.94 1061.41 1740.92 1053.72 1765.47 C 1046.47 1788.62 1037.66 1811.84 1031.85 1835.36 C 1030.79 1839.63 1029.73 1843.98 1030.73 1848.35 L 1031.97 1849.98 C 1033.45 1850.05 1034.25 1850.5 1035.43 1849.38 C 1043.84 1841.42 1075.11 1726.89 1078.86 1710.54 C 1101.59 1774.26 1123.06 1839.82 1129.75 1907.5 L 1120.97 1910.12 A 955.449 955.449 0 0 0 1078.54 1744.99 C 1069.53 1769.65 1049.42 1852.98 1034.99 1866.98 C 1033.15 1868.77 1031.99 1869.11 1029.51 1869.09 C 1017.11 1861.93 1012.1 1837.77 1007.57 1824.71 C 1032.22 1777.59 1049.63 1727.07 1068.31 1677.38 z"/>
<path transform="translate(0,0)" fill="rgb(254,254,254)" d="M 753.307 204.328 A 56.9589 56.9589 0 0 1 781.326 207.749 A 56.9451 56.9451 0 0 1 811.998 237.601 C 818.823 253.171 818.265 270.894 812.097 286.571 C 808.496 295.723 802.003 307.208 792.492 310.964 C 785.475 313.735 777.851 312.365 771.154 309.361 C 761.1 304.852 750.245 295.52 746.638 284.782 C 745.042 280.032 745.435 273.916 747.889 269.518 C 749.499 266.634 751.986 264.562 755.269 263.874 C 759.41 263.007 763.95 264.355 767.268 266.901 C 770.133 269.1 771.939 273.588 772.202 277.117 C 772.353 279.148 772.586 278.381 771.309 279.805 C 769.342 275.855 767.458 273.258 763.268 271.719 C 760.771 271.8 758.803 272.068 756.897 273.885 C 755.035 275.659 754.274 278.374 754.163 280.872 C 753.893 286.899 758.069 293.988 762.226 298.083 C 765.999 301.801 770.937 303.884 776.262 303.591 C 782.491 303.248 788.11 299.933 792.158 295.311 C 798.67 287.877 800.442 277.839 799.376 268.249 C 797.976 255.666 792.053 244.661 781.942 236.973 C 770.146 228.006 759.577 227.244 745.442 229.192 C 731.235 231.87 717.471 240.005 706.657 249.372 C 690.595 263.285 678.217 282.475 676.944 304.145 C 676.42 313.061 677.738 320.928 683.772 327.715 C 677.431 329.908 670.957 331.712 664.523 333.608 C 664.497 328.396 668.182 297.877 667.165 296.342 C 666.184 296.918 665.977 296.96 665.097 297.935 C 656.62 307.323 656.801 326.68 658.084 338.27 L 646.71 346.141 C 644.181 341.022 642.263 335.718 641.387 330.056 C 637.594 305.532 653.078 278.25 667.32 259.385 C 687.839 232.206 718.995 209.22 753.307 204.328 z"/>
<path transform="translate(0,0)" fill="rgb(250,238,214)" d="M 1044.81 1344.49 C 1073.15 1373.98 1125.33 1425.58 1125.02 1468.42 C 1124.86 1489.71 1114.99 1510.7 1108.02 1530.49 C 1104.86 1539.46 1102.16 1548.59 1098.91 1557.53 C 1085.34 1594.87 1068.66 1631.36 1053.6 1668.14 C 1044.17 1691.16 993.901 1820.61 985.821 1828.74 C 984.888 1818.46 995.74 1794.21 999.453 1783.95 C 1012.09 1749.06 1026.38 1714.86 1040.05 1680.37 A 4701.18 4701.18 0 0 0 1073.27 1593.48 C 1086.12 1559.65 1101.65 1522.22 1109.03 1486.84 C 1110.5 1479.79 1111.1 1472.71 1109.93 1465.56 C 1105.71 1439.79 1055.82 1399.72 1034.16 1384.39 C 1022.2 1375.93 1009.22 1368.97 997.399 1360.35 L 996.37 1359.59 L 1044.81 1344.49 z"/>
<path transform="translate(0,0)" fill="rgb(254,254,254)" d="M 466.282 961.423 L 481.126 962.256 L 480.807 963.031 C 476.674 972.88 471.21 982.286 466.534 991.899 A 865.766 865.766 0 0 0 448.538 1032.34 C 412.91 1116.95 386.045 1202.97 375.195 1294.42 C 372.678 1315.64 371.679 1336.9 370.324 1358.21 C 369.16 1376.51 364.947 1425.77 367.837 1442.05 C 370.12 1461.28 373.763 1480.4 375.841 1499.64 C 383.586 1568.55 405.162 1636.6 430.828 1700.76 C 436.583 1715.15 467.783 1773.65 467.719 1782.15 C 440.48 1735.8 415.538 1688.32 397.9 1637.43 C 381.516 1590.17 371.675 1540.91 365.26 1491.38 C 344.225 1328.97 372.787 1175.34 436.195 1025.37 C 445.356 1003.71 456.029 982.592 466.282 961.423 z"/>
<path transform="translate(0,0)" fill="rgb(235,70,63)" d="M 418.749 225.052 C 434.826 224.851 450.914 225.284 466.983 224.845 C 487.927 224.272 509.025 222.787 529.972 223.531 C 548.005 224.172 567.314 229.586 585.098 228.575 C 596.834 233.415 618.531 243.599 628.247 251.055 C 628.745 254.004 629.283 254.687 627.755 257.352 C 624 253.837 620.124 249.781 615.637 247.23 C 598.865 237.695 566.502 232.071 547.463 232.843 C 547.04 232.86 546.617 232.887 546.193 232.91 C 571.58 243.868 611.998 249.646 626.37 275.876 C 595.076 260.703 572.854 259.412 539.51 270.882 C 533.45 272.967 527.644 275.346 521.974 278.334 C 539.475 276.243 590.003 265.805 604.305 278.082 C 605.081 278.749 605.263 279.214 605.714 280.03 L 605.198 281.583 C 600.812 283.018 596.211 278.984 591.592 278.301 C 569.394 275.017 543.634 285.899 524.971 296.685 C 551.685 293.637 566.531 285.832 595.475 288.268 C 564.529 306.895 525.986 316.844 490.126 308.067 C 466.583 302.304 444.783 283.371 432.795 262.595 C 431.986 261.193 430.961 259.384 430.514 257.844 C 431.345 248.623 422.622 233.655 418.749 225.052 z"/>
<path transform="translate(0,0)" fill="rgb(254,254,254)" d="M 479.719 272.637 C 482.925 272.546 487.355 272.353 489.928 274.666 C 491.769 276.321 492.811 277.845 492.806 280.388 C 492.8 283.452 490.748 285.769 488.941 288.006 C 485.898 288.196 482.672 288.612 480.032 286.706 C 477.962 285.212 476.855 283.504 476.558 280.946 C 476.177 277.669 477.98 275.201 479.719 272.637 z"/>
<path transform="translate(0,0)" fill="rgb(254,254,254)" d="M 261.037 401.978 C 261.848 411.425 256.988 424.825 255.094 434.37 C 253.483 442.493 252.349 450.594 251.93 458.868 A 149.117 149.117 0 0 0 263.091 522.336 C 266.252 530.033 270.319 537.382 273.356 545.119 C 277.479 555.623 278.885 566.999 283.158 577.584 C 300.713 621.07 329.363 662.22 360.668 697.034 C 355.659 710.157 347.306 719.612 334.359 725.494 C 312.968 735.211 289.953 732.061 268.632 724.125 C 283.936 723.787 299.732 723.929 314.302 718.603 C 326.877 714.007 338.101 705.474 343.44 692.833 C 344.678 689.9 344.784 688.1 343.512 685.216 L 343.477 685.255 L 342.152 685.305 L 343.056 685.692 C 332.672 697.202 323.458 704.811 308.331 708.943 C 288.394 714.388 266.944 712.635 248.977 702.218 C 222.924 687.113 201.453 657.464 193.806 628.474 C 186.673 601.431 193.402 579.483 207.299 555.905 C 216.791 541.797 235.492 530.047 240.971 520.666 L 240.346 519.419 C 238.95 519.476 238.731 519.432 237.161 519.811 C 215.846 524.949 196.655 546.2 186.046 564.261 C 170.991 524.088 196.001 479.769 224.667 452.938 C 230.212 447.748 246.901 436.61 249.256 430.856 L 248.289 429.466 C 240.211 429.555 229.332 437.326 222.555 441.489 C 192.248 460.104 170.118 488.551 161.939 523.424 C 155.788 549.648 158.737 575.216 173.078 598.199 L 172.498 612.278 C 168.8 606.661 165.096 601.04 161.9 595.118 C 147.581 568.589 142.847 535.808 151.721 506.742 C 168.276 452.513 214.19 426.766 261.037 401.978 z"/>
<path transform="translate(0,0)" fill="rgb(120,15,24)" d="M 231.611 566.469 L 233.306 567.25 C 234.218 569.948 222.031 603.169 229.901 627.678 C 234.112 640.791 243.084 652.713 255.605 658.852 C 275.822 668.765 298.697 661.924 318.643 655.192 C 313.841 660.467 308.874 664.592 303.077 668.693 C 293.01 674.495 282.528 679.235 270.709 679.664 C 256.785 680.169 243.826 674.465 233.92 664.862 A 66.9309 66.9309 0 0 1 213.908 616.697 C 213.92 600.051 219.498 578.498 231.611 566.469 z"/>
<path transform="translate(0,0)" fill="rgb(254,254,254)" d="M 1497.6 1424.4 C 1499.58 1424.27 1501.16 1424.58 1503.12 1424.88 C 1504.18 1425.86 1505.07 1426.13 1505.11 1427.7 C 1505.75 1452.62 1424.9 1467.69 1405.08 1470.42 C 1393.36 1472.03 1380.91 1471.28 1369.37 1473.7 C 1366.18 1474.37 1363.37 1475.53 1361.21 1478.04 L 1362.01 1479.11 C 1381.28 1479.62 1399.57 1483.71 1418.91 1481.85 C 1407.58 1496.31 1399.86 1514.21 1388.58 1529.3 C 1368.87 1555.67 1337.67 1568.2 1305.54 1571.53 C 1295.52 1572.57 1285.48 1571.96 1275.49 1573.5 L 1274.03 1573.73 A 91.3 91.3 0 0 0 1276.48 1574.46 C 1311.13 1584.05 1332.75 1584.12 1364.35 1566.23 C 1352.91 1587.25 1339.36 1607.97 1325.68 1627.59 C 1278.48 1634.85 1232.08 1664.77 1191.42 1688.44 A 635.404 635.404 0 0 0 1146.38 1717.11 C 1134.38 1725.4 1122.19 1735.02 1109.11 1741.53 C 1095.88 1716.37 1089.24 1688.5 1073.52 1664.32 C 1078.98 1650.89 1082.93 1635.47 1090.74 1623.22 C 1144.39 1603.45 1212.75 1579.62 1259.71 1547.08 C 1281.9 1531.71 1297.22 1510.24 1315.63 1490.91 C 1327.6 1478.34 1342.24 1463.13 1358.1 1455.57 C 1371.45 1449.2 1388.66 1447.67 1403.03 1444.4 C 1432.38 1437.7 1468.27 1427.72 1497.6 1424.4 z"/>
<path transform="translate(0,0)" fill="rgb(254,254,254)" d="M 406.743 253.9 C 410.014 257.962 412.533 263.642 415.278 268.169 C 426.115 286.042 436.774 301.987 454.644 313.555 C 484.391 332.812 518.904 329.789 552.101 322.817 C 491.669 368.703 447.855 429.77 407.967 493.388 A 1521.44 1521.44 0 0 1 424.623 440.882 C 428.371 430.024 432.994 419.511 436.066 408.435 C 437.298 403.993 439.325 397.924 438.216 393.367 L 436.765 394.126 C 429.992 404.596 425.271 417.004 420.444 428.476 C 408.816 456.112 399.132 483.481 390.47 512.171 C 388.096 520.033 386.919 528.244 384.406 536.033 C 380.513 548.1 375.193 559.742 371.162 571.791 C 363.066 595.996 357.401 620.877 352.891 645.973 C 345.055 610.206 348.626 571.21 359.131 536.397 C 361.765 527.67 367.972 516.157 368.154 507.305 C 366.492 507.193 367.166 506.946 365.838 508.147 C 361.817 511.788 358.405 518.617 355.785 523.359 C 339.924 552.067 335.565 581.014 334.488 613.295 C 321.704 537.309 332.075 482.499 370.75 416.444 C 383.043 396.601 398.653 379.323 411.164 359.761 L 410.763 358.891 C 395.786 365.299 383.155 382.971 373.21 395.493 A 272.316 272.316 0 0 0 312.935 566.993 C 313.115 583.867 315.835 600.417 317.703 617.143 C 305.798 595.406 296.294 573.132 292.581 548.428 C 283.062 485.095 314.713 418.993 354.772 371.618 C 367.125 357.009 382.982 344.391 394.058 328.928 C 394.294 328.6 394.519 328.264 394.75 327.932 A 88.7224 88.7224 0 0 0 389.984 330.118 C 381.403 334.395 373.332 341.437 366.126 347.66 C 334.251 375.192 308.149 409.242 292.37 448.495 C 285.822 464.783 283.021 481.892 277.378 498.377 L 277.053 499.304 C 273.977 470.231 275.104 442.919 280.79 414.269 C 294.904 343.154 349.055 292.554 406.743 253.9 z"/>
<path transform="translate(0,0)" fill="rgb(252,203,188)" d="M 1115.67 1762.04 C 1151.3 1733.31 1269.08 1660.47 1312.15 1647.67 C 1308.42 1652.66 1301.93 1657.9 1300.27 1663.95 C 1299.45 1666.94 1300.08 1668.45 1301.54 1670.92 C 1313.5 1678.64 1331.81 1680.76 1345.48 1684.45 C 1393.26 1697.33 1440.31 1710.74 1489.29 1718.48 A 867.209 867.209 0 0 1 1142.92 1885.11 C 1138.17 1843.4 1127.45 1802.24 1115.67 1762.04 z"/>
<path transform="translate(0,0)" fill="rgb(254,254,254)" d="M 1295.17 910.389 C 1298.4 909.977 1303.36 909.038 1306.15 910.937 C 1308.52 916.132 1305.68 927.832 1305.81 934.123 C 1306.48 968.176 1311.09 1003.04 1318.26 1036.32 C 1332.9 1104.3 1354.24 1155.87 1405.02 1205.13 C 1395.37 1212.42 1382.56 1216.94 1371.52 1221.94 C 1331.84 1239.91 1292.79 1256.01 1250.93 1268.28 C 1240.44 1259.5 1233.13 1247.88 1225.89 1236.45 C 1207.35 1204.75 1194.13 1166.12 1185.39 1130.55 C 1172.25 1076.98 1174.6 1019.95 1186.98 966.551 C 1190.12 953.025 1193.16 938.916 1200.46 926.934 L 1202.91 926.035 C 1209.36 923.683 1224.37 917.201 1231.07 920.328 C 1230.69 920.862 1230.16 921.327 1229.99 921.955 L 1230.86 923.063 C 1227.91 938.157 1223.3 952.577 1221.22 967.928 C 1219.96 977.295 1217.25 996.059 1223.31 1003.94 C 1225.74 1003.37 1226.13 1001.89 1226.99 999.683 C 1230.51 990.748 1231.37 980.117 1233.45 970.736 C 1235.95 959.507 1243.2 932.503 1249.93 923.798 C 1258.73 912.435 1281.81 912.11 1295.17 910.389 z"/>
<path transform="translate(0,0)" fill="rgb(121,127,128)" d="M 1290.82 918.319 C 1291.34 918.226 1293.03 917.885 1293.51 917.97 C 1294.17 918.089 1294.91 918.232 1295.39 918.698 C 1295.93 919.208 1304.32 989.798 1305.6 997.965 C 1318.15 1078.17 1329.51 1143.33 1392.64 1201.56 C 1376.89 1210.11 1359.94 1217.12 1343.59 1224.47 C 1328.18 1231.4 1312.68 1239.06 1296.75 1244.7 C 1282.12 1249.88 1266.98 1253.9 1252.17 1258.59 C 1240.67 1247.94 1233.73 1236.1 1226.57 1222.34 A 829.214 829.214 0 0 1 1218.39 1204.61 C 1180.38 1118.81 1171.94 1022.61 1206.09 934.207 C 1211.25 932.774 1216.6 932.28 1221.91 931.607 C 1218.07 945.807 1212.81 960.596 1210.91 975.16 C 1209.74 984.144 1211.31 1006.83 1218.18 1013.57 C 1220.25 1015.59 1220.76 1015.37 1223.44 1015.16 C 1226.76 1012.95 1228.55 1010.18 1230.23 1006.59 C 1233.2 1000.26 1234.83 992.997 1236.82 986.28 C 1242.49 967.064 1247.42 945.775 1256.69 927.973 L 1257.36 926.71 C 1268.13 923.275 1279.64 919.991 1290.82 918.319 z"/>
<path transform="translate(0,0)" fill="rgb(254,254,254)" d="M 1280.97 1191.24 C 1285.72 1190.92 1290.5 1190.66 1295.05 1192.29 C 1302.06 1194.79 1308.34 1200.16 1311.45 1206.97 C 1313.59 1211.65 1314.4 1217.37 1312.25 1222.2 C 1309.54 1228.27 1304.64 1231.08 1298.65 1233.26 C 1294.08 1233.25 1289.26 1233.43 1284.83 1232.16 C 1277.62 1230.09 1270.61 1225.65 1267.14 1218.81 C 1264.93 1214.46 1264.2 1209.26 1266.03 1204.64 C 1268.68 1197.95 1274.72 1194.06 1280.97 1191.24 z"/>
<path transform="translate(0,0)" fill="rgb(120,15,24)" d="M 1287.02 1200.21 C 1290.01 1199.77 1292.95 1199.31 1295.94 1199.99 C 1300.59 1201.06 1304.95 1204.25 1307.39 1208.35 C 1309.3 1211.57 1309.88 1215.33 1308.72 1218.93 C 1307.15 1223.8 1303.41 1225.92 1299.06 1228.03 C 1296.9 1228.07 1294.65 1228.14 1292.51 1227.86 C 1287.66 1227.24 1281.99 1223.7 1279.3 1219.62 C 1277.54 1216.95 1276.85 1213.76 1277.58 1210.61 C 1278.8 1205.3 1282.62 1202.85 1287.02 1200.21 z"/>
<path transform="translate(0,0)" fill="rgb(254,254,254)" d="M 1290.05 1207.36 C 1290.61 1207.51 1291.19 1207.59 1291.72 1207.82 C 1293.99 1208.82 1294.35 1209.87 1295.25 1211.99 C 1294.97 1215.31 1293.9 1216.77 1291.97 1219.32 C 1289.67 1218.02 1288.67 1217.27 1287.37 1214.96 C 1287.1 1211.75 1288.46 1209.97 1290.05 1207.36 z"/>
<path transform="translate(0,0)" fill="rgb(235,70,63)" d="M 610.317 300.207 C 615.836 293.988 624.621 290.948 632.393 288.549 C 628.702 306.188 624.894 328.869 635.634 344.921 C 636.967 346.914 638.444 348.839 639.923 350.726 C 616.588 376.928 597.635 406.028 581.384 437.08 C 560.209 477.538 545.132 519.303 529.671 562.118 C 509.225 618.74 480.317 700.493 477.852 760.247 A 341.696 341.696 0 0 1 367.69 675.18 C 368.312 646.234 369.698 619.118 377.268 590.938 C 397.252 516.539 465.217 417.107 521.022 363.793 C 533.815 351.57 579.331 312.212 593.882 309.631 C 599.143 306.089 604.727 303.187 610.317 300.207 z"/>
<path transform="translate(0,0)" fill="rgb(254,254,254)" d="M 497.858 600.361 C 500.224 601.166 501.171 601.594 502.653 603.632 C 502.349 606.772 501.275 607.791 499.493 610.339 C 496.449 609.245 495.343 608.908 493.852 606.063 C 494.71 603.16 495.742 602.456 497.858 600.361 z"/>
<path transform="translate(0,0)" fill="rgb(254,254,254)" d="M 523.174 515.796 C 524.886 516.061 527.501 516.401 529.006 517.307 C 531.52 518.819 531.768 519.821 532.662 522.424 C 532.324 525.962 531.025 527.581 528.863 530.332 C 526.497 530.189 524.42 529.787 522.339 528.557 C 520.435 527.432 519.118 525.27 519.056 523.066 C 518.968 519.926 521.175 517.861 523.174 515.796 z"/>
<path transform="translate(0,0)" fill="rgb(254,254,254)" d="M 499.863 437.633 C 503.001 437.969 505.548 438.381 507.994 440.573 C 509.869 442.252 510.751 444.431 510.595 446.938 C 510.386 450.307 508.448 452.23 506.271 454.513 C 503.068 454.426 500.237 454.488 497.645 452.268 C 495.772 450.665 494.75 448.012 495.027 445.567 C 495.433 441.973 497.422 440.083 499.863 437.633 z"/>
<path transform="translate(0,0)" fill="rgb(254,254,254)" d="M 402.885 673.986 C 406.356 674.068 410.329 674.42 412.69 677.355 C 414.222 679.259 414.573 681.536 414.064 683.883 C 413.343 687.206 410.722 689.218 408.255 691.277 C 404.861 691.098 402.005 690.612 399.417 688.272 C 397.836 686.844 396.966 684.97 397.005 682.822 C 397.083 678.571 399.916 676.447 402.885 673.986 z"/>
<path transform="translate(0,0)" fill="rgb(254,254,254)" d="M 562.957 407.7 C 566.211 408.058 570.329 409.066 572.364 411.845 C 573.746 413.734 574.009 415.467 573.731 417.714 C 573.25 421.599 570.305 423.818 567.455 426.076 C 564.272 426.128 561.55 425.855 559.174 423.467 C 557.306 421.588 556.624 419.153 556.902 416.55 C 557.366 412.197 559.749 410.177 562.957 407.7 z"/>
<path transform="translate(0,0)" fill="rgb(254,254,254)" d="M 593.882 309.631 C 599.143 306.089 604.727 303.187 610.317 300.207 L 610.53 301.139 C 612.041 307.489 616.446 312.198 613.098 318.429 C 610.431 320.285 608.052 320.787 604.876 320.267 C 601.674 319.743 597.83 318.192 595.752 315.596 C 594.361 313.858 594.13 311.758 593.882 309.631 z"/>
<path transform="translate(0,0)" fill="rgb(254,254,254)" d="M 470.06 505.008 C 473.906 504.931 477.107 504.948 480.078 507.859 C 482.08 509.819 482.932 512.269 482.75 515.028 C 482.457 519.461 480.16 522.088 477.035 524.98 C 472.737 525 469.21 525.114 466.031 521.587 C 464.15 519.499 463.633 517.389 463.774 514.639 C 463.998 510.273 466.908 507.592 470.06 505.008 z"/>
<path transform="translate(0,0)" fill="rgb(254,254,254)" d="M 465.589 631.009 C 466.599 631.097 466.717 631.087 467.857 631.305 C 471.643 632.028 474.673 633.51 476.746 636.909 C 478.111 639.148 478.477 641.703 477.639 644.223 C 476.344 648.114 473.26 649.595 469.858 651.239 C 466.089 650.55 462.919 649.646 460.365 646.592 C 458.527 644.395 457.587 641.677 458.238 638.825 C 459.149 634.838 462.322 632.896 465.589 631.009 z"/>
<path transform="translate(0,0)" fill="rgb(254,254,254)" d="M 406.045 581.842 C 406.986 581.914 407.931 581.969 408.865 582.108 C 412.48 582.649 415.921 584.582 417.952 587.678 C 419.726 590.383 420.118 593.503 419.187 596.601 C 417.862 601.006 414.815 602.934 410.997 605.088 C 409.777 605.088 408.556 605.084 407.338 604.994 C 404.375 604.774 400.992 603.166 399.255 600.624 C 397.432 597.956 396.944 595.202 397.66 592.052 C 398.782 587.114 402.007 584.51 406.045 581.842 z"/>
<path transform="translate(0,0)" fill="rgb(252,203,188)" d="M 324.411 801.545 C 352.75 804.021 379.783 796.11 401.887 777.824 C 412.368 769.153 419.651 759.16 422.129 745.54 C 429.536 749.546 437.053 753.427 444.235 757.826 C 431.782 772.05 422.513 786.895 423.888 806.605 C 424.757 819.056 428.554 831.19 438.42 839.477 C 445.189 845.163 453.593 847.97 462.141 849.673 C 449.328 871.633 402.595 932.035 409.478 957.36 C 410.528 961.226 413.085 964.666 416.764 966.389 C 417.985 966.962 417.526 966.845 418.612 966.414 C 425.546 963.666 434.906 964.144 442.316 964.232 C 373.076 1106.35 329.409 1258.15 335.289 1417.42 C 336.713 1455.97 341.295 1493.96 347.281 1532.04 C 341.377 1525.77 336.679 1515.5 332.565 1507.88 A 710.371 710.371 0 0 1 273.58 1362.09 C 227.719 1198.65 233.395 1013.03 299.7 855.749 C 307.346 837.614 314.759 818.727 324.411 801.545 z"/>
<path transform="translate(0,0)" fill="rgb(254,254,254)" d="M 606.047 417.053 C 610.88 409.625 616.038 402.309 621.245 395.138 C 640.039 369.256 662.291 348.189 694.692 342.202 C 704.407 340.407 714.328 340.287 724.096 338.751 C 753.013 352.537 770.017 358.538 802.035 351.705 C 807.306 361.635 811.975 371.916 817.42 381.741 C 828.258 401.295 842.727 420.099 847.311 442.302 C 841.74 451.017 831.363 460.073 829.715 470.713 C 829.238 473.797 830.484 476.726 832.362 479.091 C 833.627 480.683 833.066 480.179 835.323 480.361 C 839.437 477.21 841.96 468.883 844.179 464.061 C 846.735 467.261 849.127 470.601 851.569 473.89 C 838.84 479.477 835.435 484.695 829.002 496.874 C 837.972 528.629 892.045 553.759 913.401 579.586 C 906.582 598.149 892.434 605.547 876.465 615.274 L 875.181 615.411 L 873.615 617.116 C 872.43 625.018 880.197 635.903 882.466 643.863 L 882.857 645.262 C 855.915 637.869 825.694 655.766 802.43 668.046 C 798.118 670.322 791.891 674.865 787.275 675.581 C 785.946 675.787 784.444 675.31 783.178 674.955 C 782.827 674.857 781.205 674.316 780.789 674.324 C 778.428 674.369 777.333 675.932 775.665 677.359 C 774.848 679.619 774.448 680.427 775.041 682.852 C 778.07 695.252 816.851 722.954 828.626 729.682 C 850.201 742.007 862.871 746.327 887.581 739.501 C 895.099 754.869 912.163 774.873 909.389 792.835 C 905.704 816.699 851.115 827.366 830.283 831.075 C 816.232 833.576 796.036 833.807 784.403 842.22 C 758.473 860.973 744.441 899.908 739.208 930.112 C 734.111 927.439 728.798 925.077 723.605 922.588 C 716.248 895.681 695.892 850.455 677.289 830.221 C 686.937 857.232 697.983 882.721 703.847 910.996 C 675.15 897.072 647.226 881.608 617.779 869.238 C 585.781 855.797 552.707 845.771 520.302 833.504 C 528.72 799.17 515.548 802.367 509.554 775.302 C 507.664 766.767 509.499 755.761 510.002 747.057 C 517.519 753.695 524.086 757.123 533.688 759.572 C 536.707 758.768 539.628 757.891 542.435 756.491 C 549.482 752.975 555.539 747.192 557.907 739.529 C 560 732.753 558.916 725.575 555.501 719.434 C 549.742 709.08 540.508 705.596 529.861 702.315 C 524.939 703.965 520.662 705.516 516.917 709.246 C 509.295 716.837 507.439 727.39 507.525 737.708 C 502.711 735.166 497.724 733.04 492.74 730.859 C 493.622 720.573 495.83 710.546 498.289 700.54 C 505.361 701.294 512.696 702.472 519.634 700.403 L 519.666 699.353 C 514.034 696.064 506.386 694.778 500.073 693.09 C 503.351 680.366 506.918 667.705 510.363 655.025 C 517.867 657.97 531.811 667.377 539.154 666.824 C 539.224 664.725 538.61 662.627 537.55 660.814 C 533.256 653.472 520.224 649.893 512.468 647.832 C 516.548 633.649 521.597 620.012 527.126 606.346 C 551.026 594.842 575.618 580.152 593.603 560.425 C 580.868 564.459 540.866 585.323 534.062 585.347 C 537.1 578.973 550.536 572.405 556.568 568.346 C 564.4 563.074 598.862 538.733 600.345 531.263 C 590.837 529.118 553.803 553.337 544.831 558.776 C 546.205 553.498 547.719 548.387 549.546 543.245 C 560.278 537.313 600.318 512.917 604.065 503.382 L 602.759 502.164 C 589.329 502.597 567.903 516.557 555.945 522.887 C 558.674 515.23 561.57 507.716 564.769 500.243 C 583.327 486.461 605.488 470.992 618.493 451.737 C 602.125 458.018 587.096 468.973 573.133 479.465 C 577.383 469.433 581.231 458.572 586.711 449.158 C 587.008 448.648 587.32 448.147 587.611 447.633 C 590.744 442.113 606.593 431.647 612.632 426.384 C 628.469 412.582 644.432 398.301 656.024 380.639 C 655.004 381.098 654.002 381.578 652.991 382.056 C 635.804 390.179 620.411 404.74 606.047 417.053 z"/>
<path transform="translate(0,0)" fill="rgb(173,43,44)" d="M 737.41 495.437 L 741.213 499.185 C 733.931 509.21 730.313 521.307 722.782 531.312 C 725.519 523.399 728.964 515.69 732.178 507.958 C 724.389 517.611 722.427 528.24 719.391 539.957 L 718.34 540.194 C 716.45 537.192 716.713 532.973 716.842 529.527 C 717.323 516.737 728.459 503.528 737.41 495.437 z"/>
<path transform="translate(0,0)" fill="rgb(120,15,24)" d="M 864.911 591.896 C 866.769 591.621 868.322 591.565 870.164 591.906 C 873.35 592.497 875.327 593.357 877.157 596.12 L 876.841 597.233 C 871.678 602.661 859.739 603.812 852.441 605.835 C 850.364 608.789 847.868 613.129 844.477 614.683 C 840.755 616.39 836.815 614.547 833.252 613.293 C 832.314 612.541 831.492 611.757 830.731 610.823 C 828.095 607.588 826.772 604.647 827.274 600.418 L 828.657 600.652 C 831.3 603.59 833.479 606.394 837.195 607.971 C 844.438 608.285 849.424 600.586 855.103 596.841 C 858.114 594.855 861.638 593.401 864.911 591.896 z"/>
<path transform="translate(0,0)" fill="rgb(120,15,24)" d="M 713.411 627.776 C 714.537 633.26 702.973 664.923 701.836 675.058 C 700.085 690.666 699.647 707.399 701.676 723.035 C 702.625 730.355 705.018 737.678 705.207 745.036 L 703.385 743.376 C 696.815 730.602 693.388 716.646 692.517 702.326 C 691.042 678.061 696.717 646.433 713.411 627.776 z"/>
<path transform="translate(0,0)" fill="rgb(120,15,24)" d="M 743.513 665.771 C 743.562 665.848 743.627 665.917 743.66 666.002 C 744.869 669.084 742.85 673.557 742.076 676.79 C 740.304 684.193 738.514 692.32 738.828 699.977 C 739.739 722.171 755.557 747.779 766.708 766.541 C 767.985 768.689 770.548 772.151 769.952 774.522 L 767.85 773.233 C 762.34 769.103 757.786 764.541 753.673 759.038 C 739.614 740.234 727.045 710.852 730.921 686.911 C 732.328 678.219 736.241 670.816 743.513 665.771 z"/>
<path transform="translate(0,0)" fill="rgb(120,15,24)" d="M 815.563 575.32 C 820.799 581.873 822.252 587.27 821.45 595.721 C 819.562 615.611 805.063 640.25 790.81 653.843 C 784.333 660.02 776.244 665.376 770.961 672.655 C 767.993 676.744 766.466 680.152 767.542 685.238 C 771.424 703.572 786.535 718.147 794.54 734.773 C 780.343 725.887 763.709 708.667 759.764 692.04 C 757.695 683.315 759.306 675.241 764.294 667.837 C 770.197 659.074 779.316 651.932 786.479 644.159 C 800.132 629.342 818.161 601.35 815.034 580.044 C 814.85 578.789 814.672 578.191 814.362 576.872 L 815.563 575.32 z"/>
<path transform="translate(0,0)" fill="rgb(120,15,24)" d="M 713.365 429.237 C 742.342 427.309 763.979 441.643 790.6 449.61 C 795.246 451 801.913 449.808 805.774 452.3 C 807.379 454.698 807.396 454.935 807.366 457.83 C 806.531 459.546 805.876 460.859 804.297 462.044 C 792.546 470.859 753.665 449.039 741.545 444.769 C 733.793 442.038 726.579 440.679 718.409 439.881 C 713.734 440.23 709.012 440.869 704.522 442.272 C 678.164 450.508 665.599 476.197 653.186 498.58 C 655.364 484.03 659.695 470.8 667.9 458.464 C 679.237 441.42 693.574 433.106 713.365 429.237 z"/>
<path transform="translate(0,0)" fill="rgb(120,15,24)" d="M 568.782 720.637 C 574.029 723.411 590.638 743.681 596.384 749.557 C 634.518 788.546 670.4 808.074 723.663 820.213 C 731.195 821.929 738.849 822.844 746.401 824.471 L 747.093 825.857 C 746.521 826.007 745.952 826.167 745.378 826.307 C 737.762 828.168 728.285 827.751 720.467 827.477 C 688.098 826.343 657.961 818.576 630.415 801.134 C 602.486 783.45 576.192 753.492 568.782 720.637 z"/>
<path transform="translate(0,0)" fill="rgb(120,15,24)" d="M 737.41 495.437 C 745.037 488.857 751.892 484.251 762.504 485.219 C 767.243 485.651 772.018 486.653 776.7 487.514 C 780.712 490.765 783.777 493.985 787.042 497.962 C 789.6 495.689 794.646 490.097 798.155 490.224 C 800.467 490.308 800.901 490.841 802.212 492.488 C 801.25 496.288 796.669 498.228 796.571 501.688 C 799.735 501.199 803.985 499.954 806.893 501.434 C 807.284 504.563 806.182 506.61 804.2 509.115 C 801.503 512.523 797.793 515.051 794.312 517.595 C 795.235 519.036 796.162 520.219 797.342 521.459 L 796.892 522.725 C 792.713 523.242 788.719 520.321 784.864 521.914 C 781.816 529.559 794.78 548.143 783.507 555.653 C 776.257 556.686 765.362 551.326 759.746 546.888 C 756.427 544.266 754.734 541.074 754.396 536.859 C 754.124 533.479 754.678 529.923 755.075 526.565 C 745.219 534.12 738.476 543.388 729.502 551.564 C 732.038 555.192 733.956 558.472 738.707 559.14 C 745.782 560.134 754.259 557.85 761.295 556.922 C 781.009 554.322 801.17 561.844 815.563 575.32 L 814.362 576.872 C 800.297 565.953 778.695 563.05 761.444 564.422 C 752.749 565.113 743.021 566.86 734.36 565.662 C 730.298 565.1 727.731 561.777 725.344 558.802 C 724.277 557.472 723.682 557.641 722.077 557.217 C 719.746 559.447 716.177 561.454 713.333 563.005 C 709.502 565.095 704.856 565.373 700.742 564.037 L 700.455 562.748 C 705.954 560.85 709.368 559.657 713.203 555.139 C 713.433 554.867 713.657 554.59 713.884 554.316 C 708.895 554.649 702.102 558.036 696.981 559.334 C 692.195 557.862 687.894 555.472 683.465 553.175 C 693.335 553.613 701.491 553.664 711.001 550.63 C 714.281 548.668 717.939 546.714 720.872 544.259 C 723.923 541.703 726.368 537.65 728.77 534.446 C 737.103 523.33 744.119 515.065 756.36 507.954 C 754.688 502.69 753.699 497.206 752.545 491.809 C 748.536 493.984 744.923 496.551 741.213 499.185 L 737.41 495.437 z"/>
<path transform="translate(0,0)" fill="rgb(254,254,254)" d="M 758.246 492.67 C 763.091 492.785 766.34 493.198 769.721 497.088 C 771.1 498.675 773.183 501.213 773.062 503.338 L 771.697 504.326 L 759.032 507.143 L 758.246 492.67 z"/>
<path transform="translate(0,0)" fill="rgb(254,254,254)" d="M 1154.51 239.144 C 1161.1 238.589 1166.94 238.35 1173.02 241.331 C 1190.18 249.745 1204.07 268.377 1216.98 282.183 C 1227.36 293.283 1238.27 303.858 1248.76 314.862 C 1258.68 325.279 1268.36 336.826 1279.42 346.02 C 1254.96 309.911 1230.84 282.562 1201.49 250.641 C 1209.77 250.828 1213.75 251.231 1220 256.939 C 1227.74 264.002 1233.72 273.762 1240.75 281.64 C 1251.79 294.012 1263.8 305.455 1274.64 318.047 C 1287.92 333.472 1300.38 351.376 1311.32 368.577 C 1329.84 397.714 1345.63 428.8 1361.08 459.634 A 2121.87 2121.87 0 0 1 1406.52 553.795 C 1472.1 696.625 1535.45 844.83 1561.91 1000.61 C 1564.81 1017.74 1568.65 1035.48 1569.24 1052.85 C 1556.09 1063.66 1541.19 1073.28 1527.27 1083.15 C 1493.25 1107.31 1458 1133.18 1420.39 1151.39 C 1410.87 1156 1401.55 1159.27 1391.22 1161.49 C 1378.74 1148.07 1369.97 1131.85 1362.56 1115.25 C 1342.93 1067.64 1333.97 1019.07 1327.4 968.148 C 1342.37 989.949 1355.65 998.539 1378.2 1011.37 C 1365.45 996.894 1352.03 982.283 1346.97 963.159 C 1335.74 920.702 1339.95 859.778 1336.87 814.42 C 1331.24 731.462 1311.54 640.163 1288.15 560.221 C 1282.5 540.93 1277.18 521.208 1269.51 502.607 C 1265.37 492.571 1259.67 479.719 1250.69 473.099 C 1236.23 462.432 1207.66 458.556 1189.89 453.714 A 1129.34 1129.34 0 0 1 1150.52 442.105 A 879.36 879.36 0 0 1 1080.87 416.235 C 1075.15 413.792 1069.31 410.943 1067.1 404.682 C 1065.34 399.715 1066.27 394.113 1068.51 389.454 C 1078.97 367.743 1108.49 382.963 1130.65 374.769 C 1132.65 374.033 1135.99 372.429 1136.65 370.244 C 1138.6 363.799 1132.53 351.233 1130.95 344.559 C 1126.71 326.58 1130.2 290.531 1126.01 279.682 L 1124.58 279.094 C 1118.03 286.282 1115.22 321.024 1114.33 331.716 C 1110.28 330.395 1106.17 329.398 1102 328.537 C 1085.7 325.17 1073.96 327.523 1060.11 336.666 C 1072.86 337.13 1085.89 338.497 1098.2 341.972 C 1111.03 345.593 1116.9 350.603 1123.26 361.918 C 1113.22 364.012 1102.87 365.545 1092.59 365.11 C 1076.62 364.435 1063.05 352.722 1052.7 341.296 C 1049.01 337.223 1045.03 332.667 1045.32 326.881 C 1050.71 316.363 1123.82 257.147 1136.43 248.446 C 1142.27 244.417 1147.78 241.419 1154.51 239.144 z"/>
<path transform="translate(0,0)" fill="rgb(120,15,24)" d="M 1528.46 1002.83 L 1529.11 1003.5 C 1531.38 1010.51 1530.57 1024.76 1528.14 1031.83 C 1523.51 1045.33 1509.35 1053.67 1497.06 1059.36 C 1465.8 1073.83 1431.37 1079.24 1398.43 1067.03 C 1395.73 1066.06 1393.25 1064.58 1390.72 1063.23 C 1428.68 1069.14 1472.23 1063.32 1505.67 1043.46 C 1521.96 1033.79 1524.17 1019.8 1528.46 1002.83 z"/>
<path transform="translate(0,0)" fill="rgb(252,203,188)" d="M 1369.4 440.07 C 1379.91 442.513 1410.94 463.421 1421.23 469.983 C 1499.7 520.019 1554.63 566.599 1614.79 638.164 C 1636.25 663.693 1656.34 689.419 1674.01 717.747 C 1731.18 809.378 1773.05 910.351 1787.9 1017.79 C 1757.73 1029.25 1727.2 1039.84 1697.14 1051.54 C 1653.2 1068.64 1609.5 1087.1 1566.05 1105.42 C 1560.05 1125.25 1551.93 1143.96 1544.39 1163.21 C 1537.47 1180.88 1531.3 1198.86 1524.17 1216.44 C 1517.03 1234.07 1509.05 1251.39 1501.64 1268.92 A 2677.82 2677.82 0 0 1 1458.37 1367.79 C 1449.75 1386.56 1441.31 1405.76 1430.83 1423.58 C 1391.6 1431.56 1361.38 1428.17 1328.06 1454.58 C 1315.18 1464.8 1303.91 1476.41 1293.37 1488.98 C 1279.88 1505.07 1267.49 1520.94 1250.23 1533.3 C 1223.46 1552.47 1192.5 1563.17 1162.1 1575.04 C 1143.05 1582.48 1124.11 1590.27 1104.97 1597.48 C 1118.21 1561.48 1139.28 1517.01 1142.38 1479.1 C 1146.84 1424.48 1100.48 1377.85 1067.8 1339.07 C 1119.12 1319.41 1181.1 1297.78 1228.89 1271.55 C 1235.83 1278.83 1243.59 1285.49 1254.16 1285.91 C 1273.74 1286.68 1403.72 1230.03 1420.34 1214.17 C 1423.26 1211.39 1427.02 1207.27 1426.61 1202.89 C 1425.86 1194.79 1416.05 1186.91 1410.58 1181.68 C 1423.86 1175.38 1436.97 1168.88 1449.61 1161.36 C 1482.88 1141.54 1514.22 1118.85 1545.09 1095.56 C 1556.93 1086.63 1570.23 1077.78 1580.3 1066.88 C 1583.11 1063.84 1584.8 1060.67 1586.48 1056.91 A 855.222 855.222 0 0 0 1559.97 895.179 C 1544.16 834.331 1521.21 775.261 1497.04 717.327 A 2998.87 2998.87 0 0 0 1426.92 559.482 C 1408.17 519.652 1386.03 480.821 1369.4 440.07 z"/>
<path transform="translate(0,0)" fill="rgb(254,254,254)" d="M 1920.06 984.101 L 1920.92 984.291 C 1922.06 986.133 1921.18 986.34 1920.35 988.135 C 1910.78 1008.93 1902.27 1029.88 1893.98 1051.2 C 1882.73 1080.12 1869.81 1108.55 1859.19 1137.68 C 1806.44 1282.25 1763.26 1433.32 1749.06 1586.96 C 1745.84 1621.86 1743.11 1656.74 1744.92 1691.79 C 1666.53 1709.1 1579.48 1716.58 1499.66 1705.89 C 1459.05 1700.45 1418.75 1690.39 1379.25 1679.71 C 1359.14 1674.27 1338.83 1669.17 1318.98 1662.89 C 1322.51 1657.32 1326.64 1652 1330.49 1646.63 C 1343.92 1629.39 1354.98 1609.08 1366.67 1590.53 C 1389.88 1553.74 1412.95 1517.01 1435.28 1479.67 C 1461.43 1470.87 1493.63 1468.7 1512.4 1445.53 C 1517.29 1439.48 1520.11 1431.94 1519.04 1424.1 C 1518.51 1420.22 1516.78 1416.88 1513.54 1414.59 C 1500.65 1405.49 1463.46 1416.77 1447.96 1419.31 C 1455.13 1401.15 1464.63 1383.78 1472.48 1365.86 C 1507.86 1284.99 1548.29 1198.9 1574.69 1115.15 C 1596.77 1104.71 1620.17 1096.42 1642.86 1087.34 C 1672.41 1075.5 1701.78 1063.05 1731.56 1051.79 C 1752.36 1043.92 1773.54 1037.07 1794.45 1029.5 C 1836.31 1014.36 1877.38 996.966 1920.06 984.101 z"/>
<path transform="translate(0,0)" fill="rgb(120,15,24)" d="M 1717.64 1370.03 C 1719.75 1369.99 1719.63 1369.64 1721.4 1371.05 C 1721.62 1372.82 1722.39 1375.24 1721.46 1376.81 C 1720.08 1379.14 1717.74 1380.11 1715.33 1381.06 C 1705.36 1385 1693.96 1386.34 1683.56 1388.97 C 1671.26 1392.08 1659.09 1395.8 1646.73 1398.85 C 1646.15 1398.77 1645.14 1398.07 1644.62 1397.78 C 1643.38 1395.24 1642.52 1393.58 1642.73 1390.66 C 1646.02 1386.56 1706.91 1373.35 1717.64 1370.03 z"/>
<path transform="translate(0,0)" fill="rgb(120,15,24)" d="M 1753.82 1255.13 L 1755.33 1255.42 C 1757.32 1257.3 1757.55 1258.65 1758.21 1261.21 C 1754.88 1267.26 1688.37 1283.99 1677.23 1287.33 C 1675.41 1286.87 1675.51 1286.73 1674.27 1285.49 C 1673.53 1282.72 1672.96 1281.52 1673.64 1278.69 C 1682.62 1274.31 1693.56 1272.18 1703.19 1269.51 A 2048.75 2048.75 0 0 0 1753.82 1255.13 z"/>
<path transform="translate(0,0)" fill="rgb(120,15,24)" d="M 1727.83 1338.14 C 1729.18 1338.9 1729.78 1339.96 1730.71 1341.17 C 1730.81 1342.64 1731.25 1343.96 1730.45 1345.27 C 1726.1 1352.43 1660.78 1368.52 1648.25 1371.82 C 1646.38 1371.77 1647.37 1371.99 1645.37 1370.88 C 1644.85 1368.15 1644.14 1366.22 1645.03 1363.5 C 1655.1 1356.56 1675.14 1354.32 1687.24 1350.75 C 1700.82 1346.73 1714.2 1342.04 1727.83 1338.14 z"/>
<path transform="translate(0,0)" fill="rgb(120,15,24)" d="M 1615.87 1367.26 C 1617.32 1367.1 1617.91 1367.32 1619.27 1367.75 C 1620.4 1370.55 1620.85 1371.6 1620.06 1374.66 C 1618.49 1376.43 1617.1 1377.54 1614.77 1378.2 C 1610.41 1379.43 1605.59 1379.45 1601.12 1380.34 A 887.734 887.734 0 0 1 1525.24 1391.48 C 1523.67 1391.75 1523.34 1391.62 1521.88 1391.14 C 1520.68 1388.92 1520.75 1387.89 1521.08 1385.42 C 1522.74 1383.26 1523.2 1382.94 1525.99 1382.31 C 1532.83 1380.78 1540.5 1381.05 1547.55 1379.93 A 1160.71 1160.71 0 0 0 1615.87 1367.26 z"/>
<path transform="translate(0,0)" fill="rgb(120,15,24)" d="M 1763.36 1223.11 C 1764.46 1223 1765.43 1223.26 1766.51 1223.45 C 1767.6 1226.02 1767.86 1226.5 1767.49 1229.23 C 1765.68 1231.47 1763.98 1232.6 1761.31 1233.7 C 1748.64 1238.93 1733.5 1242.15 1720.26 1245.88 C 1706.26 1249.83 1692.38 1254.36 1678.49 1258.66 L 1677.63 1258.64 C 1675.33 1256.79 1674.89 1252.44 1674.22 1249.61 C 1703.44 1239.51 1733.62 1231.5 1763.36 1223.11 z"/>
<path transform="translate(0,0)" fill="rgb(120,15,24)" d="M 1636.72 1285.21 C 1637.57 1286.01 1637.36 1285.67 1637.87 1287.14 C 1638.92 1290.17 1638.93 1292.43 1637.55 1295.29 C 1626.05 1300.43 1612.12 1302.97 1599.89 1305.99 A 5514.88 5514.88 0 0 0 1546.39 1319.48 C 1545.94 1318.8 1545.48 1318.13 1545.09 1317.42 C 1543.73 1314.94 1542.92 1312.67 1543.72 1309.99 C 1574.4 1300.77 1605.95 1294.43 1636.72 1285.21 z"/>
<path transform="translate(0,0)" fill="rgb(120,15,24)" d="M 1647.09 1256.08 C 1647.84 1256.57 1648.92 1257.23 1649.49 1257.91 C 1651.27 1260.04 1651.16 1261.07 1650.71 1263.54 C 1643.27 1270.91 1572.02 1288.82 1556.58 1293.62 L 1555.55 1293.46 C 1553.45 1291.42 1553.45 1288.62 1553.03 1285.87 C 1554.21 1283.86 1556.54 1283.7 1558.71 1282.97 L 1558.53 1280.72 L 1560.77 1281.89 C 1588.86 1271.6 1618.69 1265.68 1647.09 1256.08 z"/>
<path transform="translate(0,0)" fill="rgb(120,15,24)" d="M 1658.5 1504.16 L 1659.3 1504.23 C 1661.1 1505.73 1660.98 1505.87 1661.23 1508.13 C 1661.41 1509.75 1660.92 1511.93 1659.74 1513.13 C 1655.75 1517.18 1641.74 1518.34 1635.89 1519.64 C 1579.7 1532.08 1535.4 1534.03 1478.03 1532.63 C 1476.69 1532.51 1476.32 1532.17 1475.22 1531.43 C 1474.88 1528.65 1474.47 1527.53 1475.62 1524.93 C 1478.63 1523.42 1481.87 1523.17 1485.18 1523.04 C 1513.86 1521.91 1541.74 1523.55 1570.48 1520.67 C 1600.31 1517.68 1629.41 1511.29 1658.5 1504.16 z"/>
<path transform="translate(0,0)" fill="rgb(120,15,24)" d="M 1673.64 1532.1 L 1675.41 1532.18 C 1676.01 1532.76 1677.04 1533.71 1677.44 1534.43 C 1678.55 1536.43 1678.11 1537.51 1677.4 1539.43 C 1670.19 1545.33 1656.51 1547.01 1647.53 1549.11 C 1587.54 1563.11 1529.15 1565.57 1467.75 1563.1 C 1466.02 1563.09 1464.31 1562.85 1462.58 1562.66 C 1461.28 1560.54 1461.54 1560.19 1461.79 1557.67 C 1468.09 1550.26 1496.46 1554.19 1506.04 1554.25 C 1569.4 1554.63 1612.91 1548.38 1673.64 1532.1 z"/>
<path transform="translate(0,0)" fill="rgb(120,15,24)" d="M 1697.23 1459.02 L 1699.6 1459.4 C 1701.41 1461.52 1701.82 1461.83 1702.2 1464.55 C 1701.56 1465.8 1701.55 1465.98 1700.5 1467.16 C 1695.98 1472.27 1681.42 1475.13 1674.7 1477.05 C 1613.03 1494.63 1551.81 1498.77 1487.99 1497.99 C 1487.22 1497.71 1485.74 1497.22 1485.09 1496.75 C 1483.21 1495.41 1483.42 1494.1 1483.34 1492.06 C 1489.06 1485.59 1520.09 1488.18 1529.61 1488.11 C 1587.32 1487.64 1642.63 1477.24 1697.23 1459.02 z"/>
<path transform="translate(0,0)" fill="rgb(120,15,24)" d="M 1802.4 1138.04 C 1803.61 1137.91 1804.45 1138.16 1805.63 1138.42 C 1807.25 1140.87 1807.25 1140.96 1807.07 1143.9 C 1805.47 1146.5 1803.55 1147.24 1800.86 1148.41 C 1778.8 1157.99 1754.45 1164.65 1731.57 1172.12 L 1665.56 1194.31 C 1637.29 1203.55 1609.03 1212.29 1581.28 1223.05 C 1578.78 1223.43 1579.37 1223.38 1577.47 1222.2 C 1576.19 1219.68 1575.73 1219.28 1576.11 1216.53 C 1578.43 1213.11 1582.28 1211.45 1585.98 1209.87 C 1609.39 1199.91 1635.22 1193.18 1659.4 1184.99 C 1706.78 1168.94 1754.44 1152.26 1802.4 1138.04 z"/>
<path transform="translate(0,0)" fill="rgb(120,15,24)" d="M 1814.85 1103.02 C 1816.67 1102.96 1816.91 1103.13 1818.45 1103.97 C 1820.08 1106.39 1820.94 1107.44 1820.91 1110.48 C 1818.93 1113.22 1815.64 1114.32 1812.52 1115.52 C 1799.7 1120.47 1786.07 1123.81 1773.06 1128.29 C 1714.25 1148.52 1654.8 1167.4 1596.21 1188.24 C 1595.1 1188.81 1594.01 1188.82 1592.8 1188.98 L 1591.39 1187.41 C 1591.34 1185.61 1590.96 1184.12 1591.83 1182.48 C 1593.56 1179.21 1597.18 1176.88 1600.5 1175.44 C 1605.14 1173.44 1610.76 1172.68 1615.65 1171.18 C 1622.5 1169.09 1629.23 1166.44 1635.96 1163.99 C 1695.16 1142.4 1755.62 1124.55 1814.85 1103.02 z"/>
<path transform="translate(0,0)" fill="rgb(252,203,188)" d="M 844.709 403.523 C 852.845 399.353 864.18 397.215 873.104 394.975 C 933.302 379.866 996.898 373.708 1058.89 373.115 C 1052.3 382.089 1048.19 392.879 1049.83 404.156 C 1051.02 412.304 1055.49 418.753 1062.11 423.512 C 1079.46 435.981 1111.81 447.286 1132.38 454.465 A 818.338 818.338 0 0 0 1181.15 469.937 C 1198.1 474.663 1224.52 478.102 1238.96 486.965 C 1244.44 490.334 1247.89 496.052 1250.71 501.689 C 1259 518.254 1263.56 537.288 1268.68 555.06 C 1280.36 595.612 1290.75 636.221 1298.51 677.713 A 1202.59 1202.59 0 0 1 1319.03 896.458 C 1293.77 891.329 1269.03 900.477 1244.32 904.444 C 1222.1 908.013 1210.64 901.81 1188.91 916.05 C 1179.45 922.254 1174.89 935.495 1171.1 945.645 C 1130.67 947.573 1053.46 953.019 1016.83 967.893 C 1007.69 971.606 1000.33 976.915 992.721 983.073 C 971.44 983.984 949.958 983.029 928.637 983.258 C 892.893 983.642 857.62 985.091 821.944 987.225 C 802.382 969.29 779.206 956.66 758.635 940.135 C 760.734 913.432 771.424 876.348 792.122 857.968 C 802.231 848.99 820.169 850.361 833.103 847.825 C 859.383 842.673 921.87 829.26 924.037 795.198 C 925.363 774.358 907.818 748.623 895.489 733.178 C 898.107 727.474 899.813 722.125 901.239 716.024 C 896.157 699.465 890.168 683.361 884.359 667.07 C 889.035 663.375 892.308 660.169 893.142 654.024 C 895.071 639.802 882.009 626.62 875.181 615.411 L 876.465 615.274 C 877.973 615.603 879.456 615.946 881 616.052 C 891.788 616.794 903.776 610.277 911.71 603.406 C 917.603 598.303 923.847 591.414 924.144 583.188 C 924.79 565.33 891.79 549.4 879.168 539.923 C 871.575 534.222 865.09 527.726 858.554 520.868 C 861.268 518.515 863.602 515.678 865.998 513.003 C 867.38 507.409 866.514 499.889 868.281 494.821 C 869.192 492.205 885.589 487.654 889.199 483.038 C 891.574 480.001 892.076 475.874 891.533 472.152 C 890.945 468.113 890.268 465.227 887.031 462.785 C 885.724 464.62 886.048 463.828 885.463 465.876 C 884.801 468.195 884.301 470.611 883.273 472.807 C 881.5 476.597 878.175 478.805 874.231 479.941 C 871.11 480.839 869.085 480.426 866.319 478.884 C 867.286 475.855 871.088 475.884 872.612 472.876 C 871.433 472.133 870.7 471.862 869.293 471.865 C 868.017 471.868 866.541 472.059 865.282 471.861 C 859.19 470.904 855.188 462.236 852.182 457.456 C 853.675 453.585 855.211 449.655 856.283 445.643 C 860.452 430.038 852.167 416.481 844.709 403.523 z"/>
<path transform="translate(0,0)" fill="rgb(121,127,128)" d="M 491.261 849.014 C 510.566 847.899 532.6 856.718 550.76 862.951 C 620.282 886.817 681.237 916.969 743.91 955.048 C 761.616 965.806 780.715 976.621 796.773 989.692 C 754.387 995.447 703.87 1032.98 678.599 1066.13 C 647.148 1107.39 631.562 1156.55 638.713 1208.33 C 640.302 1219.83 645.642 1251.84 655.149 1259.07 C 657.257 1260.68 658.664 1260.95 661.193 1260.56 C 663.459 1257.69 663.572 1255.2 663.079 1251.62 C 661.784 1242.21 657.588 1232.75 655.212 1223.49 C 652.439 1212.7 647.12 1177.3 651.662 1167.28 L 652.163 1168.56 C 655.864 1162.86 657.424 1145.71 660.287 1137.63 C 677.84 1088.09 716.868 1054.3 761.233 1029.03 C 782.682 1016.81 798.066 1008.93 822.776 1005.14 C 831.851 1003.74 882.901 1000.44 886.014 998.802 C 886.407 998.595 886.787 998.362 887.173 998.142 C 894.66 997.514 902.209 997.477 909.719 997.299 C 894.077 1001.77 878.397 1005.43 863.046 1010.89 C 794.783 1035.17 716.355 1080.09 680.377 1145.2 C 677.887 1149.71 675.371 1154.44 676.775 1159.66 C 678.704 1161.46 678.893 1161.39 681.543 1161.69 C 683.666 1161.1 684.803 1160.28 686.246 1158.68 C 691.596 1152.77 695.804 1145.25 700.435 1138.74 C 707.669 1128.56 715.75 1119.42 724.589 1110.63 C 751.037 1084.34 782.464 1063.8 815.675 1047.07 C 822.177 1043.79 829.912 1039.42 836.917 1037.6 C 846.768 1037.54 863.735 1029.85 873.418 1026.75 C 901.229 1017.85 930.186 1007.38 959.288 1003.76 C 931.666 1028.2 903.588 1052.43 877.29 1078.28 C 870.27 1085.19 862.033 1091.98 856.082 1099.82 C 853.739 1102.9 851.482 1106.63 851.224 1110.6 A 11.7044 11.7044 0 0 0 855.016 1120.05 C 857.54 1122.39 861.129 1123.51 864.541 1123.18 C 877.889 1121.89 956.643 1039.93 983.245 1027.88 C 990.257 1027.02 1021.52 1003.19 1030.49 997.694 C 1037.44 993.432 1044.59 989.726 1052.24 986.886 A 193.258 193.258 0 0 1 1081.16 978.857 C 1091.52 976.799 1145.97 969.031 1153.08 972.243 C 1153.95 974.928 1153.21 975.696 1152.25 978.284 C 1150.95 983.692 1149.41 989.157 1148.35 994.612 C 1142.1 1031.23 1132.66 1067.9 1118.25 1102.2 C 1116.18 1105.88 1114.23 1109.15 1111.44 1112.33 C 1095.35 1134.79 1032.1 1198.59 1031.22 1222.93 C 1025.66 1230.7 1013.5 1240.97 1015.12 1251.34 C 1015.65 1254.78 1018.46 1258.85 1021.32 1260.81 C 1024.58 1263.03 1027.82 1263.39 1031.62 1262.47 C 1039.53 1260.55 1048.58 1250.92 1054.09 1245.16 C 1081.71 1216.26 1106.85 1180.19 1132.85 1149.13 C 1142.01 1138.18 1150.97 1126.92 1161.46 1117.21 C 1174.57 1174.41 1188.6 1208.66 1218.82 1258.66 A 1847.38 1847.38 0 0 1 1122.09 1299.56 A 1844.6 1844.6 0 0 1 912.847 1363.89 A 2245.62 2245.62 0 0 1 722.663 1405.04 C 715.825 1406.22 695.948 1408.07 692.459 1413.93 C 692.609 1415.48 692.279 1416.46 693.562 1417.54 C 700.237 1423.18 721.428 1418.04 729.652 1416.73 A 1854.25 1854.25 0 0 0 825.382 1398.15 C 842.297 1394.57 859.628 1391.63 876.329 1387.21 L 875.458 1387.75 C 859.675 1397.3 841.583 1404.83 825.081 1413.31 A 8037.4 8037.4 0 0 1 688.211 1481.86 A 1088.92 1088.92 0 0 1 656.783 1496.94 C 651.204 1499.47 645.091 1501.44 639.874 1504.65 C 636.598 1506.66 634.009 1508.89 632.748 1512.61 C 633.208 1515.02 632.604 1514.07 634.449 1515.5 C 648.196 1518.35 780.817 1450.88 800.862 1440.24 A 3519.15 3519.15 0 0 0 839.266 1419.52 C 850.005 1413.6 860.544 1406.87 872.165 1402.79 C 832.808 1437.37 796.609 1474.75 758.333 1510.43 L 687.722 1576.61 C 676.878 1586.63 664.697 1595.91 654.433 1606.45 C 650.963 1610.02 648.12 1613.6 647.137 1618.55 L 647.773 1620.27 C 650.958 1621.23 653.632 1619.94 656.417 1618.4 C 668.376 1611.79 687.521 1592.52 698.581 1582.8 C 750.61 1537.07 800.949 1488.75 850.242 1440.09 C 864.714 1425.81 877.921 1410.09 892.632 1396.1 C 892.526 1396.52 892.426 1396.95 892.314 1397.37 C 885.978 1421.24 867.856 1455.75 857.616 1479.43 C 815.917 1575.87 773.844 1673.91 721.088 1764.87 C 713.242 1778.4 705.424 1792 696.799 1805.05 C 691.602 1812.91 685.084 1820.57 680.506 1828.74 C 679.087 1831.27 679.018 1832.55 679.448 1835.37 C 681.171 1837.18 681.937 1837.8 684.412 1838.25 C 686.969 1837.62 688.461 1836.78 690.236 1834.89 C 694.559 1830.27 698.129 1824.03 701.8 1818.81 C 714.785 1800.36 727.456 1781.31 739.14 1762.01 C 762.653 1723.16 782.555 1682.79 802.355 1641.97 A 3044.76 3044.76 0 0 0 894.824 1433.37 C 896.91 1504.24 901.41 1574.8 899.832 1645.77 C 898.69 1697.17 893.425 1748.43 887.556 1799.46 C 883.461 1835.08 880.179 1872.45 869.546 1906.83 C 867.605 1870.33 871.077 1833.55 872.972 1797.11 A 4089.19 4089.19 0 0 0 877.434 1662.55 C 877.772 1643.13 879.908 1616.41 877.834 1597.56 C 877.421 1593.8 876.488 1591.03 874.549 1587.81 L 872.309 1586.36 C 869.473 1587.25 868.019 1588.45 866.689 1591.18 C 862.077 1600.63 863.274 1637.78 862.719 1650.5 C 860.128 1709.86 857.136 1768.84 856.771 1828.29 C 856.636 1850.37 856.19 1872.75 857.336 1894.79 C 857.754 1902.82 858.6 1912.49 861.659 1919.99 C 862.741 1922.64 863.837 1923.5 866.304 1924.77 C 869.428 1924.57 871.349 1923.27 873.315 1920.93 C 883.494 1908.82 888.865 1878.01 892.353 1861.99 C 918.717 1740.92 921.058 1613.88 915.352 1490.51 C 913.73 1455.43 912.151 1419.88 908.044 1384.99 C 936.202 1374.13 967.279 1367.81 996.37 1359.59 L 997.399 1360.35 C 1009.22 1368.97 1022.2 1375.93 1034.16 1384.39 C 1055.82 1399.72 1105.71 1439.79 1109.93 1465.56 C 1111.1 1472.71 1110.5 1479.79 1109.03 1486.84 C 1101.65 1522.22 1086.12 1559.65 1073.27 1593.48 A 4701.18 4701.18 0 0 1 1040.05 1680.37 C 1026.38 1714.86 1012.09 1749.06 999.453 1783.95 C 995.74 1794.21 984.888 1818.46 985.821 1828.74 C 985.001 1830.13 984.333 1831.36 983.71 1832.84 C 982.276 1836.23 981.6 1839.83 983.632 1843.22 C 984.987 1845.47 985.975 1845.47 988.307 1845.7 C 996.59 1842.45 1002.57 1831.8 1007.57 1824.71 C 1012.1 1837.77 1017.11 1861.93 1029.51 1869.09 C 1031.99 1869.11 1033.15 1868.77 1034.99 1866.98 C 1049.42 1852.98 1069.53 1769.65 1078.54 1744.99 A 955.449 955.449 0 0 1 1120.97 1910.12 C 1083.28 1921.01 1043.68 1927.1 1004.87 1932.6 C 849.344 1954.63 699.109 1949.74 544.515 1923.55 C 493.235 1914.87 442.103 1904.76 392.267 1889.69 C 392.731 1889.09 393.429 1888.61 393.658 1887.89 C 395.657 1881.61 396.383 1860.83 397.483 1852.42 C 402.756 1812.12 407.704 1771.84 413.69 1731.63 C 418.675 1739.85 422.292 1748.96 427.03 1757.37 C 448.399 1795.27 471.566 1834.68 501.825 1866.19 C 505.3 1869.81 510.888 1877.2 515.857 1878.43 C 518.046 1878.97 518.835 1878.72 520.829 1877.95 C 522.365 1875.11 521.985 1872.66 521.018 1869.72 C 517.695 1859.6 509.604 1849.39 503.882 1840.44 A 2160.8 2160.8 0 0 1 476.214 1796.68 C 473.68 1792.51 469.063 1786.76 467.719 1782.15 C 467.783 1773.65 436.583 1715.15 430.828 1700.76 C 405.162 1636.6 383.586 1568.55 375.841 1499.64 C 373.763 1480.4 370.12 1461.28 367.837 1442.05 C 364.947 1425.77 369.16 1376.51 370.324 1358.21 C 371.679 1336.9 372.678 1315.64 375.195 1294.42 C 386.045 1202.97 412.91 1116.95 448.538 1032.34 A 865.766 865.766 0 0 1 466.534 991.899 C 471.21 982.286 476.674 972.88 480.807 963.031 L 481.126 962.256 C 485.494 963.557 491.008 963.721 495.584 964.479 A 2159.4 2159.4 0 0 1 530.296 970.532 C 557.455 975.626 584.428 983 610.749 991.392 C 623.853 995.57 653.374 1007.53 666.374 1004.17 C 669.038 1003.48 669.988 1002.81 671.3 1000.46 C 670.997 999.525 670.873 998.915 670.208 998.089 C 665.02 991.64 647.597 988.368 639.725 985.561 C 591.536 968.372 539.864 952.853 488.742 947.751 C 473.929 946.273 458.71 946.445 443.821 946.106 C 453.63 923.853 465.133 902.488 476.62 881.075 C 481.875 871.28 488.937 860.929 492.624 850.565 L 491.261 849.014 z"/>
<path transform="translate(0,0)" fill="rgb(120,15,24)" d="M 1111.44 1112.33 C 1111.63 1106.83 1113.66 1101.7 1115.29 1096.49 C 1121.26 1077.38 1125.7 1058.35 1129.56 1038.69 C 1132.17 1025.33 1134.12 1010.64 1138.3 997.693 C 1139.65 993.519 1142.49 990.652 1145.58 987.691 C 1146.85 986.477 1147.73 985.698 1148.64 984.148 C 1149.81 982.152 1150.97 980.224 1152.25 978.284 C 1150.95 983.692 1149.41 989.157 1148.35 994.612 C 1142.1 1031.23 1132.66 1067.9 1118.25 1102.2 C 1116.18 1105.88 1114.23 1109.15 1111.44 1112.33 z"/>
<path transform="translate(0,0)" fill="rgb(120,15,24)" d="M 630.661 1298.38 C 631.527 1298.47 633.244 1298.61 634.029 1298.9 C 635.852 1299.58 636.25 1300.59 636.899 1302.28 C 640.256 1311.05 641.744 1320.79 644.518 1329.8 C 650.256 1348.44 658.462 1367.29 667.592 1384.53 C 674.516 1397.6 683.227 1410.77 692.917 1421.96 C 698.348 1428.24 707.219 1434.82 711.003 1442.02 C 711.38 1445.26 709.998 1447.11 708.436 1449.79 C 707.093 1449.25 705.762 1448.69 704.52 1447.94 C 697.822 1443.89 691.611 1436.95 686.354 1431.21 A 238.059 238.059 0 0 1 630.756 1324.32 C 628.882 1316.32 626.09 1305.72 630.661 1298.38 z"/>
<path transform="translate(0,0)" fill="rgb(120,15,24)" d="M 723.23 987.341 C 737.26 985.51 754.221 986.042 767.797 990.237 C 759.69 992.115 750.972 991.989 742.708 992.904 C 723.209 995.064 704.631 999.742 686.846 1008.13 C 655.34 1023 633.624 1045.37 613.257 1073.06 C 609.621 1078.01 603.303 1084.64 601.533 1090.39 C 600.731 1092.99 600.53 1095.32 601.85 1097.79 L 603.155 1097.64 C 609.215 1088.21 612.341 1079.18 619.627 1069.35 C 651.747 1026.04 690.6 1003.36 743.534 995.353 L 759.932 994.962 C 750.867 1000.13 740.426 1002.79 730.566 1006.08 C 709.437 1013.12 687.143 1022.09 669.576 1036.08 C 655.994 1046.9 643.456 1060.16 632.815 1073.86 C 626.376 1082.15 614.805 1104.73 607.63 1109.66 C 605.753 1110.95 602.88 1111.44 600.669 1111.05 C 594.128 1109.87 590.337 1103.82 587.332 1098.53 C 592.002 1083.57 600.097 1070.68 609.41 1058.15 C 637.676 1020.14 675.924 994.412 723.23 987.341 z"/>
<path transform="translate(0,0)" fill="rgb(120,15,24)" d="M 367.837 1442.05 C 367.831 1438.54 367.351 1434.48 369.121 1431.38 C 371.718 1430.6 371.169 1430.85 373.37 1431.98 C 375.9 1438.41 377.011 1445.99 378.885 1452.75 C 384.531 1473.09 389.691 1493.64 396.758 1513.55 A 1063.5 1063.5 0 0 0 542.967 1790.41 C 552.968 1804.03 563.149 1817.66 573.944 1830.67 C 579.27 1837.09 596.737 1854.27 599.441 1859.79 C 600.57 1862.09 599.442 1863.91 598.68 1866.1 C 596.8 1867.81 596.414 1868.35 593.676 1868.06 C 587.272 1867.38 577.727 1855.35 573.396 1850.88 A 749.674 749.674 0 0 1 463.559 1703.13 C 436.823 1656.34 415.425 1607.65 397.391 1556.87 C 394.205 1547.9 381.541 1504.66 376.403 1500.17 C 376.21 1500 376.028 1499.81 375.841 1499.64 C 373.763 1480.4 370.12 1461.28 367.837 1442.05 z"/>
<path transform="translate(0,0)" fill="rgb(120,15,24)" d="M 1135.14 980.607 L 1137.32 982.031 C 1137.67 984.239 1137.66 984.686 1136.32 986.646 C 1130.47 995.246 1111.13 1008.28 1102.31 1015.55 C 1087.54 1027.74 1073.01 1040.02 1058.71 1052.76 L 898.909 1198.04 C 875.027 1219.64 851.795 1242.43 826.635 1262.53 C 813.852 1272.74 793.75 1289.1 777.076 1291.46 C 772.55 1292.1 767.668 1291.17 764.172 1288.07 C 761.67 1285.85 760.716 1282.85 760.768 1279.61 C 761.285 1247.94 846.545 1169.97 870.317 1146.83 C 901.497 1116.47 933.033 1086.86 964.983 1057.32 C 968.244 1054.27 971.491 1051.12 974.954 1048.31 C 977.953 1045.87 983.289 1041.98 987.198 1042.34 C 987.498 1046.84 983.522 1051.59 980.699 1054.92 C 972.222 1064.93 961.402 1074.11 952.044 1083.37 C 922.036 1113.07 781.073 1245.88 777.197 1274.22 L 778.443 1275.21 C 792.829 1272.56 817.893 1252.37 829.911 1242.63 C 858.269 1219.65 884.682 1193.19 911.758 1168.66 C 925.418 1156.28 939.797 1144.71 953.613 1132.51 L 1026.71 1066.97 C 1060.95 1036.66 1096.01 1004.45 1135.14 980.607 z"/>
</svg>